<mxfile host="65bd71144e">
    <diagram id="jtcPKuWRllq_wMmOkT79" name="Master">
        <mxGraphModel dx="832" dy="432" grid="1" gridSize="10" guides="1" tooltips="1" connect="1" arrows="1" fold="1" page="1" pageScale="1" pageWidth="827" pageHeight="1169" math="0" shadow="0">
            <root>
                <mxCell id="0"/>
                <mxCell id="1" parent="0"/>
                <mxCell id="x4VVa8CzZj48PF5A5fsj-1" value="" style="edgeStyle=orthogonalEdgeStyle;rounded=0;orthogonalLoop=1;jettySize=auto;html=1;exitX=0;exitY=0.5;exitDx=0;exitDy=0;entryX=1;entryY=0.5;entryDx=0;entryDy=0;endArrow=none;startFill=0;startArrow=ERoneToMany;fontSize=14;spacingBottom=0;spacingLeft=20;fontStyle=1" parent="1" source="x4VVa8CzZj48PF5A5fsj-2" target="x4VVa8CzZj48PF5A5fsj-4" edge="1">
                    <mxGeometry x="-0.3333" y="-10" relative="1" as="geometry">
                        <mxPoint as="offset"/>
                    </mxGeometry>
                </mxCell>
                <mxCell id="x4VVa8CzZj48PF5A5fsj-2" value="نموذج العقد" style="whiteSpace=wrap;html=1;align=center;fontFamily=Readex Pro;fontSize=12;fontStyle=0;fontSource=https%3A%2F%2Ffonts.googleapis.com%2Fcss%3Ffamily%3DReadex%2BPro;gradientDirection=south;shadow=0;glass=0;rounded=0;fillColor=#003CB3;strokeColor=#001DBC;verticalAlign=middle;fontColor=#ffffff;gradientColor=#00256E;" parent="1" vertex="1">
                    <mxGeometry x="706" y="585" width="100" height="40" as="geometry"/>
                </mxCell>
                <mxCell id="x4VVa8CzZj48PF5A5fsj-3" style="edgeStyle=none;html=1;exitX=0;exitY=0.5;exitDx=0;exitDy=0;entryX=1;entryY=0.5;entryDx=0;entryDy=0;endArrow=ERone;endFill=0;" parent="1" source="x4VVa8CzZj48PF5A5fsj-4" target="x4VVa8CzZj48PF5A5fsj-5" edge="1">
                    <mxGeometry relative="1" as="geometry"/>
                </mxCell>
                <mxCell id="x4VVa8CzZj48PF5A5fsj-4" value="يرتبط ب" style="shape=rhombus;perimeter=rhombusPerimeter;whiteSpace=wrap;html=1;align=center;fontSize=14;fontFamily=Times New Roman;fontStyle=1" parent="1" vertex="1">
                    <mxGeometry x="509" y="575" width="120" height="60" as="geometry"/>
                </mxCell>
                <mxCell id="x4VVa8CzZj48PF5A5fsj-5" value="المشترك" style="whiteSpace=wrap;html=1;align=center;fontFamily=Readex Pro;fontSize=12;fontStyle=0;fontSource=https%3A%2F%2Ffonts.googleapis.com%2Fcss%3Ffamily%3DReadex%2BPro;gradientDirection=south;shadow=0;glass=0;rounded=0;fillColor=#003CB3;strokeColor=#001DBC;verticalAlign=middle;fontColor=#ffffff;gradientColor=#00256E;" parent="1" vertex="1">
                    <mxGeometry x="334" y="585" width="100" height="40" as="geometry"/>
                </mxCell>
                <mxCell id="x4VVa8CzZj48PF5A5fsj-6" value="الخدمة" style="whiteSpace=wrap;html=1;align=center;fontFamily=Readex Pro;fontSize=12;fontStyle=0;fontSource=https%3A%2F%2Ffonts.googleapis.com%2Fcss%3Ffamily%3DReadex%2BPro;gradientDirection=south;shadow=0;glass=0;rounded=0;fillColor=#003CB3;strokeColor=#001DBC;verticalAlign=middle;fontColor=#ffffff;gradientColor=#00256E;" parent="1" vertex="1">
                    <mxGeometry x="334" y="360" width="100" height="40" as="geometry"/>
                </mxCell>
                <mxCell id="x4VVa8CzZj48PF5A5fsj-7" value="" style="edgeStyle=orthogonalEdgeStyle;rounded=0;orthogonalLoop=1;jettySize=auto;html=1;entryX=0.5;entryY=1;entryDx=0;entryDy=0;endArrow=ERoneToMany;endFill=0;fontStyle=1;fontSize=14;spacingRight=20;" parent="1" source="x4VVa8CzZj48PF5A5fsj-9" target="x4VVa8CzZj48PF5A5fsj-6" edge="1">
                    <mxGeometry x="0.4" y="-10" relative="1" as="geometry">
                        <mxPoint as="offset"/>
                    </mxGeometry>
                </mxCell>
                <mxCell id="x4VVa8CzZj48PF5A5fsj-8" style="edgeStyle=none;html=1;exitX=0.5;exitY=1;exitDx=0;exitDy=0;entryX=0.5;entryY=0;entryDx=0;entryDy=0;endArrow=ERoneToMany;endFill=0;" parent="1" source="x4VVa8CzZj48PF5A5fsj-9" target="x4VVa8CzZj48PF5A5fsj-5" edge="1">
                    <mxGeometry relative="1" as="geometry"/>
                </mxCell>
                <mxCell id="x4VVa8CzZj48PF5A5fsj-9" value="طلب الخدمة" style="shape=rhombus;perimeter=rhombusPerimeter;whiteSpace=wrap;html=1;align=center;fontSize=14;fontFamily=Times New Roman;fontStyle=1" parent="1" vertex="1">
                    <mxGeometry x="324" y="460" width="120" height="60" as="geometry"/>
                </mxCell>
                <mxCell id="x4VVa8CzZj48PF5A5fsj-10" value="غرامة" style="whiteSpace=wrap;html=1;align=center;fontFamily=Readex Pro;fontSize=12;fontStyle=0;fontSource=https%3A%2F%2Ffonts.googleapis.com%2Fcss%3Ffamily%3DReadex%2BPro;gradientDirection=south;shadow=0;glass=0;rounded=0;fillColor=#003CB3;strokeColor=#001DBC;verticalAlign=middle;fontColor=#ffffff;gradientColor=#00256E;" parent="1" vertex="1">
                    <mxGeometry x="5" y="585" width="100" height="40" as="geometry"/>
                </mxCell>
                <mxCell id="x4VVa8CzZj48PF5A5fsj-11" value="عداد" style="whiteSpace=wrap;html=1;align=center;fontFamily=Readex Pro;fontSize=12;fontStyle=0;fontSource=https%3A%2F%2Ffonts.googleapis.com%2Fcss%3Ffamily%3DReadex%2BPro;gradientDirection=south;shadow=0;glass=0;rounded=0;fillColor=#003CB3;strokeColor=#001DBC;verticalAlign=middle;fontColor=#ffffff;gradientColor=#00256E;" parent="1" vertex="1">
                    <mxGeometry x="334" y="799" width="100" height="40" as="geometry"/>
                </mxCell>
                <mxCell id="x4VVa8CzZj48PF5A5fsj-12" value="" style="edgeStyle=orthogonalEdgeStyle;rounded=0;orthogonalLoop=1;jettySize=auto;html=1;entryX=0.5;entryY=0;entryDx=0;entryDy=0;endArrow=ERoneToMany;endFill=0;fontStyle=1;fontSize=14;spacingRight=20;" parent="1" source="x4VVa8CzZj48PF5A5fsj-14" target="x4VVa8CzZj48PF5A5fsj-11" edge="1">
                    <mxGeometry x="0.4" y="-10" relative="1" as="geometry">
                        <mxPoint as="offset"/>
                    </mxGeometry>
                </mxCell>
                <mxCell id="x4VVa8CzZj48PF5A5fsj-13" style="edgeStyle=none;html=1;exitX=0.5;exitY=0;exitDx=0;exitDy=0;entryX=0.5;entryY=1;entryDx=0;entryDy=0;endArrow=ERone;endFill=0;" parent="1" source="x4VVa8CzZj48PF5A5fsj-14" target="x4VVa8CzZj48PF5A5fsj-5" edge="1">
                    <mxGeometry relative="1" as="geometry"/>
                </mxCell>
                <mxCell id="x4VVa8CzZj48PF5A5fsj-14" value="يملك" style="shape=rhombus;perimeter=rhombusPerimeter;whiteSpace=wrap;html=1;align=center;fontSize=14;fontFamily=Times New Roman;fontStyle=1" parent="1" vertex="1">
                    <mxGeometry x="324" y="680" width="120" height="60" as="geometry"/>
                </mxCell>
                <mxCell id="x4VVa8CzZj48PF5A5fsj-15" value="نوع العقد" style="whiteSpace=wrap;html=1;align=center;fontFamily=Readex Pro;fontSize=12;fontStyle=0;fontSource=https%3A%2F%2Ffonts.googleapis.com%2Fcss%3Ffamily%3DReadex%2BPro;gradientDirection=south;shadow=0;glass=0;rounded=0;fillColor=#003CB3;strokeColor=#001DBC;verticalAlign=middle;fontColor=#ffffff;gradientColor=#00256E;" parent="1" vertex="1">
                    <mxGeometry x="706" y="360" width="100" height="40" as="geometry"/>
                </mxCell>
                <mxCell id="x4VVa8CzZj48PF5A5fsj-16" style="edgeStyle=none;html=1;exitX=0.5;exitY=0;exitDx=0;exitDy=0;entryX=0.5;entryY=1;entryDx=0;entryDy=0;endArrow=ERone;endFill=0;" parent="1" source="x4VVa8CzZj48PF5A5fsj-18" target="x4VVa8CzZj48PF5A5fsj-15" edge="1">
                    <mxGeometry relative="1" as="geometry"/>
                </mxCell>
                <mxCell id="x4VVa8CzZj48PF5A5fsj-17" style="edgeStyle=none;html=1;exitX=0.5;exitY=1;exitDx=0;exitDy=0;entryX=0.5;entryY=0;entryDx=0;entryDy=0;endArrow=ERoneToMany;endFill=0;" parent="1" source="x4VVa8CzZj48PF5A5fsj-18" target="x4VVa8CzZj48PF5A5fsj-2" edge="1">
                    <mxGeometry relative="1" as="geometry"/>
                </mxCell>
                <mxCell id="x4VVa8CzZj48PF5A5fsj-18" value="يحدد" style="shape=rhombus;perimeter=rhombusPerimeter;whiteSpace=wrap;html=1;align=center;fontSize=14;fontFamily=Times New Roman;fontStyle=1" parent="1" vertex="1">
                    <mxGeometry x="696" y="460" width="120" height="60" as="geometry"/>
                </mxCell>
                <mxCell id="x4VVa8CzZj48PF5A5fsj-19" style="edgeStyle=none;html=1;exitX=1;exitY=0.5;exitDx=0;exitDy=0;entryX=0;entryY=0.5;entryDx=0;entryDy=0;endArrow=ERoneToMany;endFill=0;" parent="1" source="x4VVa8CzZj48PF5A5fsj-21" target="x4VVa8CzZj48PF5A5fsj-5" edge="1">
                    <mxGeometry relative="1" as="geometry"/>
                </mxCell>
                <mxCell id="x4VVa8CzZj48PF5A5fsj-20" style="edgeStyle=none;html=1;exitX=0;exitY=0.5;exitDx=0;exitDy=0;entryX=1;entryY=0.5;entryDx=0;entryDy=0;endArrow=ERoneToMany;endFill=0;" parent="1" source="x4VVa8CzZj48PF5A5fsj-21" target="x4VVa8CzZj48PF5A5fsj-10" edge="1">
                    <mxGeometry relative="1" as="geometry"/>
                </mxCell>
                <mxCell id="x4VVa8CzZj48PF5A5fsj-21" value="غرامة المشترك" style="shape=rhombus;perimeter=rhombusPerimeter;whiteSpace=wrap;html=1;align=center;fontSize=14;fontFamily=Times New Roman;fontStyle=1" parent="1" vertex="1">
                    <mxGeometry x="164" y="575" width="120" height="60" as="geometry"/>
                </mxCell>
            </root>
        </mxGraphModel>
    </diagram>
    <diagram id="7tJiKfyQAabkoR2ZLu9f" name="ERD">
        <mxGraphModel dx="1659" dy="432" grid="1" gridSize="10" guides="1" tooltips="1" connect="1" arrows="1" fold="1" page="1" pageScale="1" pageWidth="827" pageHeight="1169" math="0" shadow="0">
            <root>
                <mxCell id="0"/>
                <mxCell id="1" parent="0"/>
                <mxCell id="axDRtoyxOWYi3-mJdKB5-1" value="المحصل" style="whiteSpace=wrap;html=1;align=center;fontFamily=Readex Pro;fontSize=12;fontStyle=0;fontSource=https%3A%2F%2Ffonts.googleapis.com%2Fcss%3Ffamily%3DReadex%2BPro;gradientDirection=south;shadow=0;glass=0;rounded=0;fillColor=#003CB3;strokeColor=#001DBC;verticalAlign=middle;fontColor=#ffffff;gradientColor=#00256E;" parent="1" vertex="1">
                    <mxGeometry x="408" y="130" width="100" height="40" as="geometry"/>
                </mxCell>
                <mxCell id="axDRtoyxOWYi3-mJdKB5-2" value="العداد المركزي" style="whiteSpace=wrap;html=1;align=center;fontFamily=Readex Pro;fontSize=12;fontStyle=0;fontSource=https%3A%2F%2Ffonts.googleapis.com%2Fcss%3Ffamily%3DReadex%2BPro;gradientDirection=south;shadow=0;glass=0;rounded=0;fillColor=#003CB3;strokeColor=#001DBC;verticalAlign=middle;fontColor=#ffffff;gradientColor=#00256E;" parent="1" vertex="1">
                    <mxGeometry x="818" y="130" width="100" height="40" as="geometry"/>
                </mxCell>
                <mxCell id="axDRtoyxOWYi3-mJdKB5-3" value="1" style="edgeStyle=orthogonalEdgeStyle;rounded=0;orthogonalLoop=1;jettySize=auto;html=1;exitX=0;exitY=0.5;exitDx=0;exitDy=0;entryX=1;entryY=0.5;entryDx=0;entryDy=0;endArrow=none;startFill=0;startArrow=ERone;fontSize=14;spacingBottom=0;spacingLeft=20;fontStyle=1" parent="1" source="axDRtoyxOWYi3-mJdKB5-4" target="axDRtoyxOWYi3-mJdKB5-9" edge="1">
                    <mxGeometry x="-0.3333" y="-10" relative="1" as="geometry">
                        <mxPoint as="offset"/>
                    </mxGeometry>
                </mxCell>
                <mxCell id="axDRtoyxOWYi3-mJdKB5-4" value="منطقة" style="whiteSpace=wrap;html=1;align=center;fontFamily=Readex Pro;fontSize=12;fontStyle=0;fontSource=https%3A%2F%2Ffonts.googleapis.com%2Fcss%3Ffamily%3DReadex%2BPro;gradientDirection=south;shadow=0;glass=0;rounded=0;fillColor=#003CB3;strokeColor=#001DBC;verticalAlign=middle;fontColor=#ffffff;gradientColor=#00256E;" parent="1" vertex="1">
                    <mxGeometry x="818" y="370" width="100" height="40" as="geometry"/>
                </mxCell>
                <mxCell id="axDRtoyxOWYi3-mJdKB5-5" value="مربع" style="whiteSpace=wrap;html=1;align=center;fontFamily=Readex Pro;fontSize=12;fontStyle=0;fontSource=https%3A%2F%2Ffonts.googleapis.com%2Fcss%3Ffamily%3DReadex%2BPro;gradientDirection=south;shadow=0;glass=0;rounded=0;fillColor=#003CB3;strokeColor=#001DBC;verticalAlign=middle;fontColor=#ffffff;gradientColor=#00256E;" parent="1" vertex="1">
                    <mxGeometry x="408" y="370" width="100" height="40" as="geometry"/>
                </mxCell>
                <mxCell id="axDRtoyxOWYi3-mJdKB5-6" value="عداد" style="whiteSpace=wrap;html=1;align=center;fontFamily=Readex Pro;fontSize=12;fontStyle=0;fontSource=https%3A%2F%2Ffonts.googleapis.com%2Fcss%3Ffamily%3DReadex%2BPro;gradientDirection=south;shadow=0;glass=0;rounded=0;fillColor=#003CB3;strokeColor=#001DBC;verticalAlign=middle;fontColor=#ffffff;gradientColor=#00256E;" parent="1" vertex="1">
                    <mxGeometry x="408" y="595" width="100" height="40" as="geometry"/>
                </mxCell>
                <mxCell id="axDRtoyxOWYi3-mJdKB5-7" value="مشترك" style="whiteSpace=wrap;html=1;align=center;fontFamily=Readex Pro;fontSize=12;fontStyle=0;fontSource=https%3A%2F%2Ffonts.googleapis.com%2Fcss%3Ffamily%3DReadex%2BPro;gradientDirection=south;shadow=0;glass=0;rounded=0;fillColor=#003CB3;strokeColor=#001DBC;verticalAlign=middle;fontColor=#ffffff;gradientColor=#00256E;" parent="1" vertex="1">
                    <mxGeometry x="818" y="595" width="100" height="40" as="geometry"/>
                </mxCell>
                <mxCell id="axDRtoyxOWYi3-mJdKB5-8" value="N" style="edgeStyle=orthogonalEdgeStyle;rounded=0;orthogonalLoop=1;jettySize=auto;html=1;entryX=1;entryY=0.5;entryDx=0;entryDy=0;endArrow=ERoneToMany;endFill=0;fontStyle=1;fontSize=14;spacingRight=20;" parent="1" source="axDRtoyxOWYi3-mJdKB5-9" target="axDRtoyxOWYi3-mJdKB5-5" edge="1">
                    <mxGeometry x="0.4" y="-10" relative="1" as="geometry">
                        <mxPoint as="offset"/>
                    </mxGeometry>
                </mxCell>
                <mxCell id="axDRtoyxOWYi3-mJdKB5-9" value="تحتوي" style="shape=rhombus;perimeter=rhombusPerimeter;whiteSpace=wrap;html=1;align=center;fontSize=14;fontFamily=Times New Roman;fontStyle=1" parent="1" vertex="1">
                    <mxGeometry x="608" y="360" width="120" height="60" as="geometry"/>
                </mxCell>
                <mxCell id="axDRtoyxOWYi3-mJdKB5-10" style="edgeStyle=orthogonalEdgeStyle;rounded=0;orthogonalLoop=1;jettySize=auto;html=1;exitX=0.5;exitY=0;exitDx=0;exitDy=0;entryX=0.5;entryY=1;entryDx=0;entryDy=0;endArrow=ERone;endFill=0;" parent="1" source="axDRtoyxOWYi3-mJdKB5-12" target="axDRtoyxOWYi3-mJdKB5-1" edge="1">
                    <mxGeometry relative="1" as="geometry"/>
                </mxCell>
                <mxCell id="axDRtoyxOWYi3-mJdKB5-11" style="edgeStyle=orthogonalEdgeStyle;rounded=0;orthogonalLoop=1;jettySize=auto;html=1;exitX=0.5;exitY=1;exitDx=0;exitDy=0;entryX=0.5;entryY=0;entryDx=0;entryDy=0;endArrow=ERone;endFill=0;" parent="1" source="axDRtoyxOWYi3-mJdKB5-12" target="axDRtoyxOWYi3-mJdKB5-5" edge="1">
                    <mxGeometry relative="1" as="geometry"/>
                </mxCell>
                <mxCell id="axDRtoyxOWYi3-mJdKB5-12" value="يعمل في" style="shape=rhombus;perimeter=rhombusPerimeter;whiteSpace=wrap;html=1;align=center;fontSize=14;fontFamily=Times New Roman;fontStyle=1" parent="1" vertex="1">
                    <mxGeometry x="398" y="235" width="120" height="60" as="geometry"/>
                </mxCell>
                <mxCell id="axDRtoyxOWYi3-mJdKB5-13" style="edgeStyle=orthogonalEdgeStyle;rounded=0;orthogonalLoop=1;jettySize=auto;html=1;exitX=0.5;exitY=0;exitDx=0;exitDy=0;entryX=0.5;entryY=1;entryDx=0;entryDy=0;endArrow=ERone;endFill=0;" parent="1" source="axDRtoyxOWYi3-mJdKB5-15" target="axDRtoyxOWYi3-mJdKB5-2" edge="1">
                    <mxGeometry relative="1" as="geometry"/>
                </mxCell>
                <mxCell id="axDRtoyxOWYi3-mJdKB5-14" style="edgeStyle=orthogonalEdgeStyle;rounded=0;orthogonalLoop=1;jettySize=auto;html=1;exitX=0.5;exitY=1;exitDx=0;exitDy=0;entryX=0.5;entryY=0;entryDx=0;entryDy=0;endArrow=ERone;endFill=0;" parent="1" source="axDRtoyxOWYi3-mJdKB5-15" target="axDRtoyxOWYi3-mJdKB5-4" edge="1">
                    <mxGeometry relative="1" as="geometry"/>
                </mxCell>
                <mxCell id="axDRtoyxOWYi3-mJdKB5-15" value="يرتبط ب" style="shape=rhombus;perimeter=rhombusPerimeter;whiteSpace=wrap;html=1;align=center;fontSize=14;fontFamily=Times New Roman;fontStyle=1" parent="1" vertex="1">
                    <mxGeometry x="808" y="235" width="120" height="60" as="geometry"/>
                </mxCell>
                <mxCell id="axDRtoyxOWYi3-mJdKB5-16" value="Attribute" style="ellipse;whiteSpace=wrap;html=1;align=center;fontStyle=4;" parent="1" vertex="1">
                    <mxGeometry x="288" y="50" width="100" height="40" as="geometry"/>
                </mxCell>
                <mxCell id="698p1tGL__TA1Hl2wthr-3" style="html=1;exitX=0.5;exitY=0;exitDx=0;exitDy=0;entryX=0.5;entryY=1;entryDx=0;entryDy=0;endArrow=ERone;endFill=0;" parent="1" source="698p1tGL__TA1Hl2wthr-2" target="axDRtoyxOWYi3-mJdKB5-5" edge="1">
                    <mxGeometry relative="1" as="geometry"/>
                </mxCell>
                <mxCell id="19" style="edgeStyle=none;html=1;exitX=0.5;exitY=1;exitDx=0;exitDy=0;entryX=0.5;entryY=0;entryDx=0;entryDy=0;" parent="1" source="698p1tGL__TA1Hl2wthr-2" target="axDRtoyxOWYi3-mJdKB5-6" edge="1">
                    <mxGeometry relative="1" as="geometry"/>
                </mxCell>
                <mxCell id="698p1tGL__TA1Hl2wthr-2" value="يحتوي" style="shape=rhombus;perimeter=rhombusPerimeter;whiteSpace=wrap;html=1;align=center;fontSize=14;fontFamily=Times New Roman;fontStyle=1" parent="1" vertex="1">
                    <mxGeometry x="398" y="465" width="120" height="60" as="geometry"/>
                </mxCell>
                <mxCell id="I2-0H5rBrHjLBqtSDF3C-33" style="edgeStyle=none;html=1;exitX=1;exitY=0.5;exitDx=0;exitDy=0;entryX=0;entryY=0.5;entryDx=0;entryDy=0;" parent="1" source="698p1tGL__TA1Hl2wthr-5" target="axDRtoyxOWYi3-mJdKB5-7" edge="1">
                    <mxGeometry relative="1" as="geometry"/>
                </mxCell>
                <mxCell id="I2-0H5rBrHjLBqtSDF3C-34" style="edgeStyle=none;html=1;exitX=0;exitY=0.5;exitDx=0;exitDy=0;entryX=1;entryY=0.5;entryDx=0;entryDy=0;" parent="1" source="698p1tGL__TA1Hl2wthr-5" target="axDRtoyxOWYi3-mJdKB5-6" edge="1">
                    <mxGeometry relative="1" as="geometry"/>
                </mxCell>
                <mxCell id="698p1tGL__TA1Hl2wthr-5" value="لديه" style="shape=rhombus;perimeter=rhombusPerimeter;whiteSpace=wrap;html=1;align=center;fontSize=14;fontFamily=Times New Roman;fontStyle=1" parent="1" vertex="1">
                    <mxGeometry x="608" y="585" width="120" height="60" as="geometry"/>
                </mxCell>
                <mxCell id="Tos9YYHqMo1NdxR6eXnm-1" value="قراءات العداد" style="whiteSpace=wrap;html=1;align=center;fontFamily=Readex Pro;fontSize=12;fontStyle=0;fontSource=https%3A%2F%2Ffonts.googleapis.com%2Fcss%3Ffamily%3DReadex%2BPro;gradientDirection=south;shadow=0;glass=0;rounded=0;fillColor=#003CB3;strokeColor=#001DBC;verticalAlign=middle;fontColor=#ffffff;gradientColor=#00256E;" parent="1" vertex="1">
                    <mxGeometry x="408" y="855" width="100" height="40" as="geometry"/>
                </mxCell>
                <mxCell id="YIyBFGghaavbg1Homd01-1" value="حالة" style="whiteSpace=wrap;html=1;align=center;fontFamily=Readex Pro;fontSize=12;fontStyle=0;fontSource=https%3A%2F%2Ffonts.googleapis.com%2Fcss%3Ffamily%3DReadex%2BPro;gradientDirection=south;shadow=0;glass=0;rounded=0;fillColor=#003CB3;strokeColor=#001DBC;verticalAlign=middle;fontColor=#ffffff;gradientColor=#00256E;" parent="1" vertex="1">
                    <mxGeometry x="70" y="605" width="100" height="40" as="geometry"/>
                </mxCell>
                <mxCell id="GEy8FT0dW60oO7kEbYd8-1" value="الغرامة" style="whiteSpace=wrap;html=1;align=center;fontFamily=Readex Pro;fontSize=12;fontStyle=0;fontSource=https%3A%2F%2Ffonts.googleapis.com%2Fcss%3Ffamily%3DReadex%2BPro;gradientDirection=south;shadow=0;glass=0;rounded=0;fillColor=#003CB3;strokeColor=#001DBC;verticalAlign=middle;fontColor=#ffffff;gradientColor=#00256E;" parent="1" vertex="1">
                    <mxGeometry x="1040" y="660" width="100" height="40" as="geometry"/>
                </mxCell>
                <mxCell id="GEy8FT0dW60oO7kEbYd8-2" value="المدفوع" style="whiteSpace=wrap;html=1;align=center;fontFamily=Readex Pro;fontSize=12;fontStyle=0;fontSource=https%3A%2F%2Ffonts.googleapis.com%2Fcss%3Ffamily%3DReadex%2BPro;gradientDirection=south;shadow=0;glass=0;rounded=0;fillColor=#003CB3;strokeColor=#001DBC;verticalAlign=middle;fontColor=#ffffff;gradientColor=#00256E;" parent="1" vertex="1">
                    <mxGeometry x="1040" y="740" width="100" height="40" as="geometry"/>
                </mxCell>
                <mxCell id="GEy8FT0dW60oO7kEbYd8-3" value="المتأخر" style="whiteSpace=wrap;html=1;align=center;fontFamily=Readex Pro;fontSize=12;fontStyle=0;fontSource=https%3A%2F%2Ffonts.googleapis.com%2Fcss%3Ffamily%3DReadex%2BPro;gradientDirection=south;shadow=0;glass=0;rounded=0;fillColor=#003CB3;strokeColor=#001DBC;verticalAlign=middle;fontColor=#ffffff;gradientColor=#00256E;" parent="1" vertex="1">
                    <mxGeometry x="1060" y="830" width="100" height="40" as="geometry"/>
                </mxCell>
                <mxCell id="GEy8FT0dW60oO7kEbYd8-4" value="فاتورة" style="whiteSpace=wrap;html=1;align=center;fontFamily=Readex Pro;fontSize=12;fontStyle=0;fontSource=https%3A%2F%2Ffonts.googleapis.com%2Fcss%3Ffamily%3DReadex%2BPro;gradientDirection=south;shadow=0;glass=0;rounded=0;fillColor=#003CB3;strokeColor=#001DBC;verticalAlign=middle;fontColor=#ffffff;gradientColor=#00256E;" parent="1" vertex="1">
                    <mxGeometry x="830" y="855" width="100" height="40" as="geometry"/>
                </mxCell>
                <mxCell id="CeG9UhR5rtRIAwY2tmK7-1" value="خدمة" style="whiteSpace=wrap;html=1;align=center;fontFamily=Readex Pro;fontSize=12;fontStyle=0;fontSource=https%3A%2F%2Ffonts.googleapis.com%2Fcss%3Ffamily%3DReadex%2BPro;gradientDirection=south;shadow=0;glass=0;rounded=0;fillColor=#003CB3;strokeColor=#001DBC;verticalAlign=middle;fontColor=#ffffff;gradientColor=#00256E;" parent="1" vertex="1">
                    <mxGeometry x="-460" y="560" width="100" height="40" as="geometry"/>
                </mxCell>
                <mxCell id="CeG9UhR5rtRIAwY2tmK7-4" style="edgeStyle=none;html=1;exitX=0;exitY=0.5;exitDx=0;exitDy=0;entryX=1;entryY=0.5;entryDx=0;entryDy=0;endArrow=ERoneToMany;endFill=0;" parent="1" source="CeG9UhR5rtRIAwY2tmK7-2" target="CeG9UhR5rtRIAwY2tmK7-1" edge="1">
                    <mxGeometry relative="1" as="geometry"/>
                </mxCell>
                <mxCell id="7" style="edgeStyle=none;html=1;exitX=0;exitY=0;exitDx=0;exitDy=0;entryX=0.738;entryY=0.933;entryDx=0;entryDy=0;entryPerimeter=0;" parent="1" source="CeG9UhR5rtRIAwY2tmK7-2" target="5" edge="1">
                    <mxGeometry relative="1" as="geometry"/>
                </mxCell>
                <mxCell id="CeG9UhR5rtRIAwY2tmK7-2" value="يطلب" style="shape=rhombus;perimeter=rhombusPerimeter;whiteSpace=wrap;html=1;align=center;fontSize=14;fontFamily=Times New Roman;fontStyle=1" parent="1" vertex="1">
                    <mxGeometry x="-270" y="550" width="120" height="60" as="geometry"/>
                </mxCell>
                <mxCell id="58bj6LHLXnhJYpuBUuTD-7" style="edgeStyle=none;html=1;exitX=0.5;exitY=0;exitDx=0;exitDy=0;entryX=0.5;entryY=1;entryDx=0;entryDy=0;endArrow=ERone;endFill=0;" parent="1" source="CeG9UhR5rtRIAwY2tmK7-5" target="axDRtoyxOWYi3-mJdKB5-6" edge="1">
                    <mxGeometry relative="1" as="geometry"/>
                </mxCell>
                <mxCell id="58bj6LHLXnhJYpuBUuTD-8" style="edgeStyle=none;html=1;exitX=0.5;exitY=1;exitDx=0;exitDy=0;entryX=0.5;entryY=0;entryDx=0;entryDy=0;endArrow=ERoneToMany;endFill=0;" parent="1" source="CeG9UhR5rtRIAwY2tmK7-5" target="Tos9YYHqMo1NdxR6eXnm-1" edge="1">
                    <mxGeometry relative="1" as="geometry"/>
                </mxCell>
                <mxCell id="CeG9UhR5rtRIAwY2tmK7-5" value="يسجل" style="shape=rhombus;perimeter=rhombusPerimeter;whiteSpace=wrap;html=1;align=center;fontSize=14;fontFamily=Times New Roman;fontStyle=1" parent="1" vertex="1">
                    <mxGeometry x="398" y="710" width="120" height="60" as="geometry"/>
                </mxCell>
                <mxCell id="EsDZ4L4VOIvLP-5NpML8-7" style="edgeStyle=none;html=1;exitX=0;exitY=0.5;exitDx=0;exitDy=0;entryX=1;entryY=0.5;entryDx=0;entryDy=0;endArrow=ERone;endFill=0;" parent="1" source="CeG9UhR5rtRIAwY2tmK7-6" target="YIyBFGghaavbg1Homd01-1" edge="1">
                    <mxGeometry relative="1" as="geometry"/>
                </mxCell>
                <mxCell id="CeG9UhR5rtRIAwY2tmK7-6" value="لديه" style="shape=rhombus;perimeter=rhombusPerimeter;whiteSpace=wrap;html=1;align=center;fontSize=14;fontFamily=Times New Roman;fontStyle=1" parent="1" vertex="1">
                    <mxGeometry x="220" y="585" width="120" height="60" as="geometry"/>
                </mxCell>
                <mxCell id="5" value="حالة الطلب" style="ellipse;whiteSpace=wrap;html=1;align=center;" parent="1" vertex="1">
                    <mxGeometry x="-328" y="520" width="80" height="30" as="geometry"/>
                </mxCell>
                <mxCell id="wJBJh6Vp_LYHkJnoOQtM-7" value="عقد" style="whiteSpace=wrap;html=1;align=center;fontFamily=Readex Pro;fontSize=12;fontStyle=0;fontSource=https%3A%2F%2Ffonts.googleapis.com%2Fcss%3Ffamily%3DReadex%2BPro;gradientDirection=south;shadow=0;glass=0;rounded=0;fillColor=#003CB3;strokeColor=#001DBC;verticalAlign=middle;fontColor=#ffffff;gradientColor=#00256E;" parent="1" vertex="1">
                    <mxGeometry x="1020" y="510" width="100" height="40" as="geometry"/>
                </mxCell>
                <mxCell id="nI9Y66owmzcPhLGqO4mS-7" value="تعرفة اشتراك" style="whiteSpace=wrap;html=1;align=center;fontFamily=Readex Pro;fontSize=12;fontStyle=0;fontSource=https%3A%2F%2Ffonts.googleapis.com%2Fcss%3Ffamily%3DReadex%2BPro;gradientDirection=south;shadow=0;glass=0;rounded=0;fillColor=#003CB3;strokeColor=#001DBC;verticalAlign=middle;fontColor=#ffffff;gradientColor=#00256E;" parent="1" vertex="1">
                    <mxGeometry x="130" y="700" width="100" height="40" as="geometry"/>
                </mxCell>
                <mxCell id="9" style="edgeStyle=none;html=1;exitX=1;exitY=0.5;exitDx=0;exitDy=0;endArrow=ERone;endFill=0;" parent="1" source="8" target="GEy8FT0dW60oO7kEbYd8-4" edge="1">
                    <mxGeometry relative="1" as="geometry"/>
                </mxCell>
                <mxCell id="10" style="edgeStyle=none;html=1;exitX=0;exitY=0.5;exitDx=0;exitDy=0;entryX=1;entryY=0.5;entryDx=0;entryDy=0;endArrow=ERone;endFill=0;" parent="1" source="8" target="Tos9YYHqMo1NdxR6eXnm-1" edge="1">
                    <mxGeometry relative="1" as="geometry"/>
                </mxCell>
                <mxCell id="8" value="تحسب" style="shape=rhombus;perimeter=rhombusPerimeter;whiteSpace=wrap;html=1;align=center;fontSize=14;fontFamily=Times New Roman;fontStyle=1" parent="1" vertex="1">
                    <mxGeometry x="620" y="845" width="120" height="60" as="geometry"/>
                </mxCell>
                <mxCell id="14" value="تاريخ الطلب" style="ellipse;whiteSpace=wrap;html=1;align=center;" parent="1" vertex="1">
                    <mxGeometry x="-180" y="610" width="80" height="30" as="geometry"/>
                </mxCell>
                <mxCell id="17" style="edgeStyle=none;html=1;exitX=1;exitY=1;exitDx=0;exitDy=0;entryX=0.4;entryY=0.067;entryDx=0;entryDy=0;entryPerimeter=0;" parent="1" source="CeG9UhR5rtRIAwY2tmK7-2" target="14" edge="1">
                    <mxGeometry relative="1" as="geometry"/>
                </mxCell>
                <mxCell id="I2-0H5rBrHjLBqtSDF3C-19" value="سجلات العداد المركزي" style="whiteSpace=wrap;html=1;align=center;fontFamily=Readex Pro;fontSize=12;fontStyle=0;fontSource=https%3A%2F%2Ffonts.googleapis.com%2Fcss%3Ffamily%3DReadex%2BPro;gradientDirection=south;shadow=0;glass=0;rounded=0;fillColor=#003CB3;strokeColor=#001DBC;verticalAlign=middle;fontColor=#ffffff;gradientColor=#00256E;" parent="1" vertex="1">
                    <mxGeometry x="1228" y="130" width="100" height="40" as="geometry"/>
                </mxCell>
                <mxCell id="I2-0H5rBrHjLBqtSDF3C-32" value="تسجل" style="shape=rhombus;perimeter=rhombusPerimeter;whiteSpace=wrap;html=1;align=center;fontSize=14;fontFamily=Times New Roman;fontStyle=1" parent="1" vertex="1">
                    <mxGeometry x="1020" y="120" width="120" height="60" as="geometry"/>
                </mxCell>
            </root>
        </mxGraphModel>
    </diagram>
    <diagram id="tgJWv5yGLvsyWFq6ms1Y" name="Page-4">
        <mxGraphModel dx="1659" dy="432" grid="1" gridSize="10" guides="1" tooltips="1" connect="1" arrows="1" fold="1" page="1" pageScale="1" pageWidth="827" pageHeight="1169" math="0" shadow="0">
            <root>
                <mxCell id="0"/>
                <mxCell id="1" parent="0"/>
                <mxCell id="8oeXGIi4cYKKy2I2KhnT-1" value="" style="edgeStyle=orthogonalEdgeStyle;rounded=0;orthogonalLoop=1;jettySize=auto;html=1;exitX=0;exitY=0.5;exitDx=0;exitDy=0;entryX=1;entryY=0.5;entryDx=0;entryDy=0;endArrow=none;startFill=0;startArrow=ERone;fontSize=14;spacingBottom=0;spacingLeft=20;fontStyle=1" edge="1" parent="1" source="8oeXGIi4cYKKy2I2KhnT-2" target="8oeXGIi4cYKKy2I2KhnT-5">
                    <mxGeometry x="-0.3333" y="-10" relative="1" as="geometry">
                        <mxPoint as="offset"/>
                    </mxGeometry>
                </mxCell>
                <mxCell id="8oeXGIi4cYKKy2I2KhnT-2" value="محصل" style="whiteSpace=wrap;html=1;align=center;fontFamily=Readex Pro;fontSize=12;fontStyle=0;fontSource=https%3A%2F%2Ffonts.googleapis.com%2Fcss%3Ffamily%3DReadex%2BPro;gradientDirection=south;shadow=0;glass=0;rounded=0;fillColor=#003CB3;strokeColor=#001DBC;verticalAlign=middle;fontColor=#ffffff;gradientColor=#00256E;" vertex="1" parent="1">
                    <mxGeometry x="630" y="50" width="100" height="40" as="geometry"/>
                </mxCell>
                <mxCell id="8oeXGIi4cYKKy2I2KhnT-3" value="مربع" style="whiteSpace=wrap;html=1;align=center;fontFamily=Readex Pro;fontSize=12;fontStyle=0;fontSource=https%3A%2F%2Ffonts.googleapis.com%2Fcss%3Ffamily%3DReadex%2BPro;gradientDirection=south;shadow=0;glass=0;rounded=0;fillColor=#003CB3;strokeColor=#001DBC;verticalAlign=middle;fontColor=#ffffff;gradientColor=#00256E;" vertex="1" parent="1">
                    <mxGeometry x="220" y="50" width="100" height="40" as="geometry"/>
                </mxCell>
                <mxCell id="8oeXGIi4cYKKy2I2KhnT-4" value="" style="edgeStyle=orthogonalEdgeStyle;rounded=0;orthogonalLoop=1;jettySize=auto;html=1;entryX=1;entryY=0.5;entryDx=0;entryDy=0;endArrow=ERoneToMany;endFill=0;fontStyle=1;fontSize=14;spacingRight=20;" edge="1" parent="1" source="8oeXGIi4cYKKy2I2KhnT-5" target="8oeXGIi4cYKKy2I2KhnT-3">
                    <mxGeometry x="0.4" y="-10" relative="1" as="geometry">
                        <mxPoint as="offset"/>
                    </mxGeometry>
                </mxCell>
                <mxCell id="8oeXGIi4cYKKy2I2KhnT-5" value="يعمل في" style="shape=rhombus;perimeter=rhombusPerimeter;whiteSpace=wrap;html=1;align=center;fontSize=14;fontFamily=Times New Roman;fontStyle=1" vertex="1" parent="1">
                    <mxGeometry x="420" y="40" width="120" height="60" as="geometry"/>
                </mxCell>
                <mxCell id="8oeXGIi4cYKKy2I2KhnT-6" value="" style="edgeStyle=orthogonalEdgeStyle;rounded=0;orthogonalLoop=1;jettySize=auto;html=1;exitX=0;exitY=0.5;exitDx=0;exitDy=0;entryX=1;entryY=0.5;entryDx=0;entryDy=0;endArrow=none;startFill=0;startArrow=ERone;fontSize=14;spacingBottom=0;spacingLeft=20;fontStyle=1" edge="1" parent="1" source="8oeXGIi4cYKKy2I2KhnT-7" target="8oeXGIi4cYKKy2I2KhnT-10">
                    <mxGeometry x="-0.3333" y="-10" relative="1" as="geometry">
                        <mxPoint as="offset"/>
                    </mxGeometry>
                </mxCell>
                <mxCell id="8oeXGIi4cYKKy2I2KhnT-7" value="منطقة" style="whiteSpace=wrap;html=1;align=center;fontFamily=Readex Pro;fontSize=12;fontStyle=0;fontSource=https%3A%2F%2Ffonts.googleapis.com%2Fcss%3Ffamily%3DReadex%2BPro;gradientDirection=south;shadow=0;glass=0;rounded=0;fillColor=#003CB3;strokeColor=#001DBC;verticalAlign=middle;fontColor=#ffffff;gradientColor=#00256E;" vertex="1" parent="1">
                    <mxGeometry x="630" y="140" width="100" height="40" as="geometry"/>
                </mxCell>
                <mxCell id="8oeXGIi4cYKKy2I2KhnT-8" value="مربع" style="whiteSpace=wrap;html=1;align=center;fontFamily=Readex Pro;fontSize=12;fontStyle=0;fontSource=https%3A%2F%2Ffonts.googleapis.com%2Fcss%3Ffamily%3DReadex%2BPro;gradientDirection=south;shadow=0;glass=0;rounded=0;fillColor=#003CB3;strokeColor=#001DBC;verticalAlign=middle;fontColor=#ffffff;gradientColor=#00256E;" vertex="1" parent="1">
                    <mxGeometry x="220" y="140" width="100" height="40" as="geometry"/>
                </mxCell>
                <mxCell id="8oeXGIi4cYKKy2I2KhnT-9" value="" style="edgeStyle=orthogonalEdgeStyle;rounded=0;orthogonalLoop=1;jettySize=auto;html=1;entryX=1;entryY=0.5;entryDx=0;entryDy=0;endArrow=ERoneToMany;endFill=0;fontStyle=1;fontSize=14;spacingRight=20;" edge="1" parent="1" source="8oeXGIi4cYKKy2I2KhnT-10" target="8oeXGIi4cYKKy2I2KhnT-8">
                    <mxGeometry x="0.4" y="-10" relative="1" as="geometry">
                        <mxPoint as="offset"/>
                    </mxGeometry>
                </mxCell>
                <mxCell id="8oeXGIi4cYKKy2I2KhnT-10" value="تحتوي" style="shape=rhombus;perimeter=rhombusPerimeter;whiteSpace=wrap;html=1;align=center;fontSize=14;fontFamily=Times New Roman;fontStyle=1" vertex="1" parent="1">
                    <mxGeometry x="420" y="130" width="120" height="60" as="geometry"/>
                </mxCell>
                <mxCell id="4aiOCagk2QXFntDGTBi_-1" value="" style="edgeStyle=orthogonalEdgeStyle;rounded=0;orthogonalLoop=1;jettySize=auto;html=1;exitX=0;exitY=0.5;exitDx=0;exitDy=0;entryX=1;entryY=0.5;entryDx=0;entryDy=0;endArrow=none;startFill=0;startArrow=ERone;fontSize=14;spacingBottom=0;spacingLeft=20;fontStyle=1" edge="1" parent="1" source="4aiOCagk2QXFntDGTBi_-2" target="4aiOCagk2QXFntDGTBi_-5">
                    <mxGeometry x="-0.3333" y="-10" relative="1" as="geometry">
                        <mxPoint as="offset"/>
                    </mxGeometry>
                </mxCell>
                <mxCell id="4aiOCagk2QXFntDGTBi_-2" value="العداد المركزي" style="whiteSpace=wrap;html=1;align=center;fontFamily=Readex Pro;fontSize=12;fontStyle=0;fontSource=https%3A%2F%2Ffonts.googleapis.com%2Fcss%3Ffamily%3DReadex%2BPro;gradientDirection=south;shadow=0;glass=0;rounded=0;fillColor=#003CB3;strokeColor=#001DBC;verticalAlign=middle;fontColor=#ffffff;gradientColor=#00256E;" vertex="1" parent="1">
                    <mxGeometry x="630" y="230" width="100" height="40" as="geometry"/>
                </mxCell>
                <mxCell id="4aiOCagk2QXFntDGTBi_-3" value="منطقة" style="whiteSpace=wrap;html=1;align=center;fontFamily=Readex Pro;fontSize=12;fontStyle=0;fontSource=https%3A%2F%2Ffonts.googleapis.com%2Fcss%3Ffamily%3DReadex%2BPro;gradientDirection=south;shadow=0;glass=0;rounded=0;fillColor=#003CB3;strokeColor=#001DBC;verticalAlign=middle;fontColor=#ffffff;gradientColor=#00256E;" vertex="1" parent="1">
                    <mxGeometry x="220" y="230" width="100" height="40" as="geometry"/>
                </mxCell>
                <mxCell id="4aiOCagk2QXFntDGTBi_-4" value="" style="edgeStyle=orthogonalEdgeStyle;rounded=0;orthogonalLoop=1;jettySize=auto;html=1;entryX=1;entryY=0.5;entryDx=0;entryDy=0;endArrow=ERoneToMany;endFill=0;fontStyle=1;fontSize=14;spacingRight=20;" edge="1" parent="1" source="4aiOCagk2QXFntDGTBi_-5" target="4aiOCagk2QXFntDGTBi_-3">
                    <mxGeometry x="0.4" y="-10" relative="1" as="geometry">
                        <mxPoint as="offset"/>
                    </mxGeometry>
                </mxCell>
                <mxCell id="4aiOCagk2QXFntDGTBi_-5" value="يرتبط ب" style="shape=rhombus;perimeter=rhombusPerimeter;whiteSpace=wrap;html=1;align=center;fontSize=14;fontFamily=Times New Roman;fontStyle=1" vertex="1" parent="1">
                    <mxGeometry x="420" y="220" width="120" height="60" as="geometry"/>
                </mxCell>
                <mxCell id="4aiOCagk2QXFntDGTBi_-6" value="" style="edgeStyle=orthogonalEdgeStyle;rounded=0;orthogonalLoop=1;jettySize=auto;html=1;exitX=0;exitY=0.5;exitDx=0;exitDy=0;entryX=1;entryY=0.5;entryDx=0;entryDy=0;endArrow=none;startFill=0;startArrow=ERone;fontSize=14;spacingBottom=0;spacingLeft=20;fontStyle=1" edge="1" parent="1" source="4aiOCagk2QXFntDGTBi_-7" target="4aiOCagk2QXFntDGTBi_-10">
                    <mxGeometry x="-0.3333" y="-10" relative="1" as="geometry">
                        <mxPoint as="offset"/>
                    </mxGeometry>
                </mxCell>
                <mxCell id="4aiOCagk2QXFntDGTBi_-7" value="سجلات العداد المركزي" style="whiteSpace=wrap;html=1;align=center;fontFamily=Readex Pro;fontSize=12;fontStyle=0;fontSource=https%3A%2F%2Ffonts.googleapis.com%2Fcss%3Ffamily%3DReadex%2BPro;gradientDirection=south;shadow=0;glass=0;rounded=0;fillColor=#003CB3;strokeColor=#001DBC;verticalAlign=middle;fontColor=#ffffff;gradientColor=#00256E;" vertex="1" parent="1">
                    <mxGeometry x="630" y="320" width="100" height="40" as="geometry"/>
                </mxCell>
                <mxCell id="4aiOCagk2QXFntDGTBi_-8" value="العداد المركزي" style="whiteSpace=wrap;html=1;align=center;fontFamily=Readex Pro;fontSize=12;fontStyle=0;fontSource=https%3A%2F%2Ffonts.googleapis.com%2Fcss%3Ffamily%3DReadex%2BPro;gradientDirection=south;shadow=0;glass=0;rounded=0;fillColor=#003CB3;strokeColor=#001DBC;verticalAlign=middle;fontColor=#ffffff;gradientColor=#00256E;" vertex="1" parent="1">
                    <mxGeometry x="220" y="320" width="100" height="40" as="geometry"/>
                </mxCell>
                <mxCell id="4aiOCagk2QXFntDGTBi_-9" value="" style="edgeStyle=orthogonalEdgeStyle;rounded=0;orthogonalLoop=1;jettySize=auto;html=1;entryX=1;entryY=0.5;entryDx=0;entryDy=0;endArrow=ERoneToMany;endFill=0;fontStyle=1;fontSize=14;spacingRight=20;" edge="1" parent="1" source="4aiOCagk2QXFntDGTBi_-10" target="4aiOCagk2QXFntDGTBi_-8">
                    <mxGeometry x="0.4" y="-10" relative="1" as="geometry">
                        <mxPoint as="offset"/>
                    </mxGeometry>
                </mxCell>
                <mxCell id="4aiOCagk2QXFntDGTBi_-10" value="تسجل" style="shape=rhombus;perimeter=rhombusPerimeter;whiteSpace=wrap;html=1;align=center;fontSize=14;fontFamily=Times New Roman;fontStyle=1" vertex="1" parent="1">
                    <mxGeometry x="420" y="310" width="120" height="60" as="geometry"/>
                </mxCell>
                <mxCell id="CB7KfSF8NDhgqaPTiQIH-1" value="" style="edgeStyle=orthogonalEdgeStyle;rounded=0;orthogonalLoop=1;jettySize=auto;html=1;exitX=0;exitY=0.5;exitDx=0;exitDy=0;entryX=1;entryY=0.5;entryDx=0;entryDy=0;endArrow=none;startFill=0;startArrow=ERone;fontSize=14;spacingBottom=0;spacingLeft=20;fontStyle=1" edge="1" parent="1" source="CB7KfSF8NDhgqaPTiQIH-2" target="CB7KfSF8NDhgqaPTiQIH-5">
                    <mxGeometry x="-0.3333" y="-10" relative="1" as="geometry">
                        <mxPoint as="offset"/>
                    </mxGeometry>
                </mxCell>
                <mxCell id="CB7KfSF8NDhgqaPTiQIH-2" value="نوع العقد" style="whiteSpace=wrap;html=1;align=center;fontFamily=Readex Pro;fontSize=12;fontStyle=0;fontSource=https%3A%2F%2Ffonts.googleapis.com%2Fcss%3Ffamily%3DReadex%2BPro;gradientDirection=south;shadow=0;glass=0;rounded=0;fillColor=#003CB3;strokeColor=#001DBC;verticalAlign=middle;fontColor=#ffffff;gradientColor=#00256E;" vertex="1" parent="1">
                    <mxGeometry x="630" y="400" width="100" height="40" as="geometry"/>
                </mxCell>
                <mxCell id="CB7KfSF8NDhgqaPTiQIH-3" value="العقد" style="whiteSpace=wrap;html=1;align=center;fontFamily=Readex Pro;fontSize=12;fontStyle=0;fontSource=https%3A%2F%2Ffonts.googleapis.com%2Fcss%3Ffamily%3DReadex%2BPro;gradientDirection=south;shadow=0;glass=0;rounded=0;fillColor=#003CB3;strokeColor=#001DBC;verticalAlign=middle;fontColor=#ffffff;gradientColor=#00256E;" vertex="1" parent="1">
                    <mxGeometry x="220" y="400" width="100" height="40" as="geometry"/>
                </mxCell>
                <mxCell id="CB7KfSF8NDhgqaPTiQIH-4" value="" style="edgeStyle=orthogonalEdgeStyle;rounded=0;orthogonalLoop=1;jettySize=auto;html=1;entryX=1;entryY=0.5;entryDx=0;entryDy=0;endArrow=ERoneToMany;endFill=0;fontStyle=1;fontSize=14;spacingRight=20;" edge="1" parent="1" source="CB7KfSF8NDhgqaPTiQIH-5" target="CB7KfSF8NDhgqaPTiQIH-3">
                    <mxGeometry x="0.4" y="-10" relative="1" as="geometry">
                        <mxPoint as="offset"/>
                    </mxGeometry>
                </mxCell>
                <mxCell id="CB7KfSF8NDhgqaPTiQIH-5" value="يحدد" style="shape=rhombus;perimeter=rhombusPerimeter;whiteSpace=wrap;html=1;align=center;fontSize=14;fontFamily=Times New Roman;fontStyle=1" vertex="1" parent="1">
                    <mxGeometry x="420" y="390" width="120" height="60" as="geometry"/>
                </mxCell>
                <mxCell id="CB7KfSF8NDhgqaPTiQIH-6" value="" style="edgeStyle=orthogonalEdgeStyle;rounded=0;orthogonalLoop=1;jettySize=auto;html=1;exitX=0;exitY=0.5;exitDx=0;exitDy=0;entryX=1;entryY=0.5;entryDx=0;entryDy=0;endArrow=none;startFill=0;startArrow=ERone;fontSize=14;spacingBottom=0;spacingLeft=20;fontStyle=1" edge="1" parent="1" source="CB7KfSF8NDhgqaPTiQIH-7" target="CB7KfSF8NDhgqaPTiQIH-10">
                    <mxGeometry x="-0.3333" y="-10" relative="1" as="geometry">
                        <mxPoint as="offset"/>
                    </mxGeometry>
                </mxCell>
                <mxCell id="CB7KfSF8NDhgqaPTiQIH-7" value="عداد" style="whiteSpace=wrap;html=1;align=center;fontFamily=Readex Pro;fontSize=12;fontStyle=0;fontSource=https%3A%2F%2Ffonts.googleapis.com%2Fcss%3Ffamily%3DReadex%2BPro;gradientDirection=south;shadow=0;glass=0;rounded=0;fillColor=#003CB3;strokeColor=#001DBC;verticalAlign=middle;fontColor=#ffffff;gradientColor=#00256E;" vertex="1" parent="1">
                    <mxGeometry x="50" y="50" width="100" height="40" as="geometry"/>
                </mxCell>
                <mxCell id="CB7KfSF8NDhgqaPTiQIH-8" value="مربع" style="whiteSpace=wrap;html=1;align=center;fontFamily=Readex Pro;fontSize=12;fontStyle=0;fontSource=https%3A%2F%2Ffonts.googleapis.com%2Fcss%3Ffamily%3DReadex%2BPro;gradientDirection=south;shadow=0;glass=0;rounded=0;fillColor=#003CB3;strokeColor=#001DBC;verticalAlign=middle;fontColor=#ffffff;gradientColor=#00256E;" vertex="1" parent="1">
                    <mxGeometry x="-360" y="50" width="100" height="40" as="geometry"/>
                </mxCell>
                <mxCell id="CB7KfSF8NDhgqaPTiQIH-9" value="" style="edgeStyle=orthogonalEdgeStyle;rounded=0;orthogonalLoop=1;jettySize=auto;html=1;entryX=1;entryY=0.5;entryDx=0;entryDy=0;endArrow=ERoneToMany;endFill=0;fontStyle=1;fontSize=14;spacingRight=20;" edge="1" parent="1" source="CB7KfSF8NDhgqaPTiQIH-10" target="CB7KfSF8NDhgqaPTiQIH-8">
                    <mxGeometry x="0.4" y="-10" relative="1" as="geometry">
                        <mxPoint as="offset"/>
                    </mxGeometry>
                </mxCell>
                <mxCell id="CB7KfSF8NDhgqaPTiQIH-10" value="يتبع" style="shape=rhombus;perimeter=rhombusPerimeter;whiteSpace=wrap;html=1;align=center;fontSize=14;fontFamily=Times New Roman;fontStyle=1" vertex="1" parent="1">
                    <mxGeometry x="-160" y="40" width="120" height="60" as="geometry"/>
                </mxCell>
                <mxCell id="d0srjG6x2VQDI_c1P_S1-1" value="" style="edgeStyle=orthogonalEdgeStyle;rounded=0;orthogonalLoop=1;jettySize=auto;html=1;exitX=0;exitY=0.5;exitDx=0;exitDy=0;entryX=1;entryY=0.5;entryDx=0;entryDy=0;endArrow=none;startFill=0;startArrow=ERone;fontSize=14;spacingBottom=0;spacingLeft=20;fontStyle=1" edge="1" parent="1" source="d0srjG6x2VQDI_c1P_S1-2" target="d0srjG6x2VQDI_c1P_S1-5">
                    <mxGeometry x="-0.3333" y="-10" relative="1" as="geometry">
                        <mxPoint as="offset"/>
                    </mxGeometry>
                </mxCell>
                <mxCell id="d0srjG6x2VQDI_c1P_S1-2" value="حالة عداد" style="whiteSpace=wrap;html=1;align=center;fontFamily=Readex Pro;fontSize=12;fontStyle=0;fontSource=https%3A%2F%2Ffonts.googleapis.com%2Fcss%3Ffamily%3DReadex%2BPro;gradientDirection=south;shadow=0;glass=0;rounded=0;fillColor=#003CB3;strokeColor=#001DBC;verticalAlign=middle;fontColor=#ffffff;gradientColor=#00256E;" vertex="1" parent="1">
                    <mxGeometry x="50" y="140" width="100" height="40" as="geometry"/>
                </mxCell>
                <mxCell id="d0srjG6x2VQDI_c1P_S1-3" value="عداد" style="whiteSpace=wrap;html=1;align=center;fontFamily=Readex Pro;fontSize=12;fontStyle=0;fontSource=https%3A%2F%2Ffonts.googleapis.com%2Fcss%3Ffamily%3DReadex%2BPro;gradientDirection=south;shadow=0;glass=0;rounded=0;fillColor=#003CB3;strokeColor=#001DBC;verticalAlign=middle;fontColor=#ffffff;gradientColor=#00256E;" vertex="1" parent="1">
                    <mxGeometry x="-360" y="140" width="100" height="40" as="geometry"/>
                </mxCell>
                <mxCell id="d0srjG6x2VQDI_c1P_S1-4" value="" style="edgeStyle=orthogonalEdgeStyle;rounded=0;orthogonalLoop=1;jettySize=auto;html=1;entryX=1;entryY=0.5;entryDx=0;entryDy=0;endArrow=ERoneToMany;endFill=0;fontStyle=1;fontSize=14;spacingRight=20;" edge="1" parent="1" source="d0srjG6x2VQDI_c1P_S1-5" target="d0srjG6x2VQDI_c1P_S1-3">
                    <mxGeometry x="0.4" y="-10" relative="1" as="geometry">
                        <mxPoint as="offset"/>
                    </mxGeometry>
                </mxCell>
                <mxCell id="d0srjG6x2VQDI_c1P_S1-5" value="تحدد" style="shape=rhombus;perimeter=rhombusPerimeter;whiteSpace=wrap;html=1;align=center;fontSize=14;fontFamily=Times New Roman;fontStyle=1" vertex="1" parent="1">
                    <mxGeometry x="-160" y="130" width="120" height="60" as="geometry"/>
                </mxCell>
                <mxCell id="WQ3bo8zvzlbtFZDNdrGV-1" value="" style="edgeStyle=orthogonalEdgeStyle;rounded=0;orthogonalLoop=1;jettySize=auto;html=1;exitX=0;exitY=0.5;exitDx=0;exitDy=0;entryX=1;entryY=0.5;entryDx=0;entryDy=0;endArrow=none;startFill=0;startArrow=ERone;fontSize=14;spacingBottom=0;spacingLeft=20;fontStyle=1" edge="1" parent="1" source="WQ3bo8zvzlbtFZDNdrGV-2" target="WQ3bo8zvzlbtFZDNdrGV-5">
                    <mxGeometry x="-0.3333" y="-10" relative="1" as="geometry">
                        <mxPoint as="offset"/>
                    </mxGeometry>
                </mxCell>
                <mxCell id="WQ3bo8zvzlbtFZDNdrGV-2" value="قراءات العداد" style="whiteSpace=wrap;html=1;align=center;fontFamily=Readex Pro;fontSize=12;fontStyle=0;fontSource=https%3A%2F%2Ffonts.googleapis.com%2Fcss%3Ffamily%3DReadex%2BPro;gradientDirection=south;shadow=0;glass=0;rounded=0;fillColor=#003CB3;strokeColor=#001DBC;verticalAlign=middle;fontColor=#ffffff;gradientColor=#00256E;" vertex="1" parent="1">
                    <mxGeometry x="50" y="220" width="100" height="40" as="geometry"/>
                </mxCell>
                <mxCell id="WQ3bo8zvzlbtFZDNdrGV-3" value="عداد" style="whiteSpace=wrap;html=1;align=center;fontFamily=Readex Pro;fontSize=12;fontStyle=0;fontSource=https%3A%2F%2Ffonts.googleapis.com%2Fcss%3Ffamily%3DReadex%2BPro;gradientDirection=south;shadow=0;glass=0;rounded=0;fillColor=#003CB3;strokeColor=#001DBC;verticalAlign=middle;fontColor=#ffffff;gradientColor=#00256E;" vertex="1" parent="1">
                    <mxGeometry x="-360" y="220" width="100" height="40" as="geometry"/>
                </mxCell>
                <mxCell id="WQ3bo8zvzlbtFZDNdrGV-4" value="" style="edgeStyle=orthogonalEdgeStyle;rounded=0;orthogonalLoop=1;jettySize=auto;html=1;entryX=1;entryY=0.5;entryDx=0;entryDy=0;endArrow=ERoneToMany;endFill=0;fontStyle=1;fontSize=14;spacingRight=20;" edge="1" parent="1" source="WQ3bo8zvzlbtFZDNdrGV-5" target="WQ3bo8zvzlbtFZDNdrGV-3">
                    <mxGeometry x="0.4" y="-10" relative="1" as="geometry">
                        <mxPoint as="offset"/>
                    </mxGeometry>
                </mxCell>
                <mxCell id="WQ3bo8zvzlbtFZDNdrGV-5" value="تسجل" style="shape=rhombus;perimeter=rhombusPerimeter;whiteSpace=wrap;html=1;align=center;fontSize=14;fontFamily=Times New Roman;fontStyle=1" vertex="1" parent="1">
                    <mxGeometry x="-160" y="210" width="120" height="60" as="geometry"/>
                </mxCell>
                <mxCell id="wu5t1lCGPSTY0exExl1D-1" value="" style="edgeStyle=orthogonalEdgeStyle;rounded=0;orthogonalLoop=1;jettySize=auto;html=1;exitX=0;exitY=0.5;exitDx=0;exitDy=0;entryX=1;entryY=0.5;entryDx=0;entryDy=0;endArrow=none;startFill=0;startArrow=ERone;fontSize=14;spacingBottom=0;spacingLeft=20;fontStyle=1" edge="1" parent="1" source="wu5t1lCGPSTY0exExl1D-2" target="wu5t1lCGPSTY0exExl1D-5">
                    <mxGeometry x="-0.3333" y="-10" relative="1" as="geometry">
                        <mxPoint as="offset"/>
                    </mxGeometry>
                </mxCell>
                <mxCell id="wu5t1lCGPSTY0exExl1D-2" value="العقد" style="whiteSpace=wrap;html=1;align=center;fontFamily=Readex Pro;fontSize=12;fontStyle=0;fontSource=https%3A%2F%2Ffonts.googleapis.com%2Fcss%3Ffamily%3DReadex%2BPro;gradientDirection=south;shadow=0;glass=0;rounded=0;fillColor=#003CB3;strokeColor=#001DBC;verticalAlign=middle;fontColor=#ffffff;gradientColor=#00256E;" vertex="1" parent="1">
                    <mxGeometry x="630" y="760" width="100" height="40" as="geometry"/>
                </mxCell>
                <mxCell id="wu5t1lCGPSTY0exExl1D-3" value="المشترك" style="whiteSpace=wrap;html=1;align=center;fontFamily=Readex Pro;fontSize=12;fontStyle=0;fontSource=https%3A%2F%2Ffonts.googleapis.com%2Fcss%3Ffamily%3DReadex%2BPro;gradientDirection=south;shadow=0;glass=0;rounded=0;fillColor=#003CB3;strokeColor=#001DBC;verticalAlign=middle;fontColor=#ffffff;gradientColor=#00256E;" vertex="1" parent="1">
                    <mxGeometry x="220" y="760" width="100" height="40" as="geometry"/>
                </mxCell>
                <mxCell id="wu5t1lCGPSTY0exExl1D-4" value="" style="edgeStyle=orthogonalEdgeStyle;rounded=0;orthogonalLoop=1;jettySize=auto;html=1;entryX=1;entryY=0.5;entryDx=0;entryDy=0;endArrow=ERoneToMany;endFill=0;fontStyle=1;fontSize=14;spacingRight=20;" edge="1" parent="1" source="wu5t1lCGPSTY0exExl1D-5" target="wu5t1lCGPSTY0exExl1D-3">
                    <mxGeometry x="0.4" y="-10" relative="1" as="geometry">
                        <mxPoint as="offset"/>
                    </mxGeometry>
                </mxCell>
                <mxCell id="wu5t1lCGPSTY0exExl1D-5" value="يرتبط ب" style="shape=rhombus;perimeter=rhombusPerimeter;whiteSpace=wrap;html=1;align=center;fontSize=14;fontFamily=Times New Roman;fontStyle=1" vertex="1" parent="1">
                    <mxGeometry x="420" y="750" width="120" height="60" as="geometry"/>
                </mxCell>
                <mxCell id="wu5t1lCGPSTY0exExl1D-6" value="" style="edgeStyle=orthogonalEdgeStyle;rounded=0;orthogonalLoop=1;jettySize=auto;html=1;exitX=0;exitY=0.5;exitDx=0;exitDy=0;entryX=1;entryY=0.5;entryDx=0;entryDy=0;endArrow=none;startFill=0;startArrow=ERone;fontSize=14;spacingBottom=0;spacingLeft=20;fontStyle=1" edge="1" parent="1" source="wu5t1lCGPSTY0exExl1D-7" target="wu5t1lCGPSTY0exExl1D-10">
                    <mxGeometry x="-0.3333" y="-10" relative="1" as="geometry">
                        <mxPoint as="offset"/>
                    </mxGeometry>
                </mxCell>
                <mxCell id="wu5t1lCGPSTY0exExl1D-7" value="نوع الاشتراك" style="whiteSpace=wrap;html=1;align=center;fontFamily=Readex Pro;fontSize=12;fontStyle=0;fontSource=https%3A%2F%2Ffonts.googleapis.com%2Fcss%3Ffamily%3DReadex%2BPro;gradientDirection=south;shadow=0;glass=0;rounded=0;fillColor=#003CB3;strokeColor=#001DBC;verticalAlign=middle;fontColor=#ffffff;gradientColor=#00256E;" vertex="1" parent="1">
                    <mxGeometry x="630" y="850" width="100" height="40" as="geometry"/>
                </mxCell>
                <mxCell id="wu5t1lCGPSTY0exExl1D-8" value="عداد" style="whiteSpace=wrap;html=1;align=center;fontFamily=Readex Pro;fontSize=12;fontStyle=0;fontSource=https%3A%2F%2Ffonts.googleapis.com%2Fcss%3Ffamily%3DReadex%2BPro;gradientDirection=south;shadow=0;glass=0;rounded=0;fillColor=#003CB3;strokeColor=#001DBC;verticalAlign=middle;fontColor=#ffffff;gradientColor=#00256E;" vertex="1" parent="1">
                    <mxGeometry x="220" y="850" width="100" height="40" as="geometry"/>
                </mxCell>
                <mxCell id="wu5t1lCGPSTY0exExl1D-9" value="" style="edgeStyle=orthogonalEdgeStyle;rounded=0;orthogonalLoop=1;jettySize=auto;html=1;entryX=1;entryY=0.5;entryDx=0;entryDy=0;endArrow=ERoneToMany;endFill=0;fontStyle=1;fontSize=14;spacingRight=20;" edge="1" parent="1" source="wu5t1lCGPSTY0exExl1D-10" target="wu5t1lCGPSTY0exExl1D-8">
                    <mxGeometry x="0.4" y="-10" relative="1" as="geometry">
                        <mxPoint as="offset"/>
                    </mxGeometry>
                </mxCell>
                <mxCell id="wu5t1lCGPSTY0exExl1D-10" value="يعرف" style="shape=rhombus;perimeter=rhombusPerimeter;whiteSpace=wrap;html=1;align=center;fontSize=14;fontFamily=Times New Roman;fontStyle=1" vertex="1" parent="1">
                    <mxGeometry x="420" y="840" width="120" height="60" as="geometry"/>
                </mxCell>
                <mxCell id="BoaE6PwOp0AgUASwfdqm-1" value="" style="edgeStyle=orthogonalEdgeStyle;rounded=0;orthogonalLoop=1;jettySize=auto;html=1;exitX=0;exitY=0.5;exitDx=0;exitDy=0;entryX=1;entryY=0.5;entryDx=0;entryDy=0;endArrow=none;startFill=0;startArrow=ERone;fontSize=14;spacingBottom=0;spacingLeft=20;fontStyle=1" edge="1" parent="1" source="BoaE6PwOp0AgUASwfdqm-2" target="BoaE6PwOp0AgUASwfdqm-5">
                    <mxGeometry x="-0.3333" y="-10" relative="1" as="geometry">
                        <mxPoint as="offset"/>
                    </mxGeometry>
                </mxCell>
                <mxCell id="BoaE6PwOp0AgUASwfdqm-2" value="طلب خدمة" style="whiteSpace=wrap;html=1;align=center;fontFamily=Readex Pro;fontSize=12;fontStyle=0;fontSource=https%3A%2F%2Ffonts.googleapis.com%2Fcss%3Ffamily%3DReadex%2BPro;gradientDirection=south;shadow=0;glass=0;rounded=0;fillColor=#003CB3;strokeColor=#001DBC;verticalAlign=middle;fontColor=#ffffff;gradientColor=#00256E;" vertex="1" parent="1">
                    <mxGeometry x="630" y="927" width="100" height="40" as="geometry"/>
                </mxCell>
                <mxCell id="BoaE6PwOp0AgUASwfdqm-3" value="مشترك" style="whiteSpace=wrap;html=1;align=center;fontFamily=Readex Pro;fontSize=12;fontStyle=0;fontSource=https%3A%2F%2Ffonts.googleapis.com%2Fcss%3Ffamily%3DReadex%2BPro;gradientDirection=south;shadow=0;glass=0;rounded=0;fillColor=#003CB3;strokeColor=#001DBC;verticalAlign=middle;fontColor=#ffffff;gradientColor=#00256E;" vertex="1" parent="1">
                    <mxGeometry x="220" y="927" width="100" height="40" as="geometry"/>
                </mxCell>
                <mxCell id="BoaE6PwOp0AgUASwfdqm-4" value="" style="edgeStyle=orthogonalEdgeStyle;rounded=0;orthogonalLoop=1;jettySize=auto;html=1;entryX=1;entryY=0.5;entryDx=0;entryDy=0;endArrow=ERoneToMany;endFill=0;fontStyle=1;fontSize=14;spacingRight=20;" edge="1" parent="1" source="BoaE6PwOp0AgUASwfdqm-5" target="BoaE6PwOp0AgUASwfdqm-3">
                    <mxGeometry x="0.4" y="-10" relative="1" as="geometry">
                        <mxPoint as="offset"/>
                    </mxGeometry>
                </mxCell>
                <mxCell id="BoaE6PwOp0AgUASwfdqm-5" value="ينتمي" style="shape=rhombus;perimeter=rhombusPerimeter;whiteSpace=wrap;html=1;align=center;fontSize=14;fontFamily=Times New Roman;fontStyle=1" vertex="1" parent="1">
                    <mxGeometry x="420" y="917" width="120" height="60" as="geometry"/>
                </mxCell>
                <mxCell id="X91Y15eY98Pa7RRq1HmU-1" value="" style="edgeStyle=orthogonalEdgeStyle;rounded=0;orthogonalLoop=1;jettySize=auto;html=1;exitX=0;exitY=0.5;exitDx=0;exitDy=0;entryX=1;entryY=0.5;entryDx=0;entryDy=0;endArrow=none;startFill=0;startArrow=ERone;fontSize=14;spacingBottom=0;spacingLeft=20;fontStyle=1" edge="1" parent="1" source="X91Y15eY98Pa7RRq1HmU-2" target="X91Y15eY98Pa7RRq1HmU-5">
                    <mxGeometry x="-0.3333" y="-10" relative="1" as="geometry">
                        <mxPoint as="offset"/>
                    </mxGeometry>
                </mxCell>
                <mxCell id="X91Y15eY98Pa7RRq1HmU-2" value="خدمة" style="whiteSpace=wrap;html=1;align=center;fontFamily=Readex Pro;fontSize=12;fontStyle=0;fontSource=https%3A%2F%2Ffonts.googleapis.com%2Fcss%3Ffamily%3DReadex%2BPro;gradientDirection=south;shadow=0;glass=0;rounded=0;fillColor=#003CB3;strokeColor=#001DBC;verticalAlign=middle;fontColor=#ffffff;gradientColor=#00256E;" vertex="1" parent="1">
                    <mxGeometry x="630" y="1020" width="100" height="40" as="geometry"/>
                </mxCell>
                <mxCell id="X91Y15eY98Pa7RRq1HmU-3" value="طلب خدمة" style="whiteSpace=wrap;html=1;align=center;fontFamily=Readex Pro;fontSize=12;fontStyle=0;fontSource=https%3A%2F%2Ffonts.googleapis.com%2Fcss%3Ffamily%3DReadex%2BPro;gradientDirection=south;shadow=0;glass=0;rounded=0;fillColor=#003CB3;strokeColor=#001DBC;verticalAlign=middle;fontColor=#ffffff;gradientColor=#00256E;" vertex="1" parent="1">
                    <mxGeometry x="220" y="1020" width="100" height="40" as="geometry"/>
                </mxCell>
                <mxCell id="X91Y15eY98Pa7RRq1HmU-4" value="" style="edgeStyle=orthogonalEdgeStyle;rounded=0;orthogonalLoop=1;jettySize=auto;html=1;entryX=1;entryY=0.5;entryDx=0;entryDy=0;endArrow=ERoneToMany;endFill=0;fontStyle=1;fontSize=14;spacingRight=20;" edge="1" parent="1" source="X91Y15eY98Pa7RRq1HmU-5" target="X91Y15eY98Pa7RRq1HmU-3">
                    <mxGeometry x="0.4" y="-10" relative="1" as="geometry">
                        <mxPoint as="offset"/>
                    </mxGeometry>
                </mxCell>
                <mxCell id="X91Y15eY98Pa7RRq1HmU-5" value="تحدد" style="shape=rhombus;perimeter=rhombusPerimeter;whiteSpace=wrap;html=1;align=center;fontSize=14;fontFamily=Times New Roman;fontStyle=1" vertex="1" parent="1">
                    <mxGeometry x="420" y="1010" width="120" height="60" as="geometry"/>
                </mxCell>
                <mxCell id="RA6LiPNnP_DhFnkGQbrV-1" value="" style="edgeStyle=orthogonalEdgeStyle;rounded=0;orthogonalLoop=1;jettySize=auto;html=1;exitX=0;exitY=0.5;exitDx=0;exitDy=0;entryX=1;entryY=0.5;entryDx=0;entryDy=0;endArrow=none;startFill=0;startArrow=ERone;fontSize=14;spacingBottom=0;spacingLeft=20;fontStyle=1" edge="1" parent="1" source="RA6LiPNnP_DhFnkGQbrV-2" target="RA6LiPNnP_DhFnkGQbrV-5">
                    <mxGeometry x="-0.3333" y="-10" relative="1" as="geometry">
                        <mxPoint as="offset"/>
                    </mxGeometry>
                </mxCell>
                <mxCell id="RA6LiPNnP_DhFnkGQbrV-2" value="غرامة" style="whiteSpace=wrap;html=1;align=center;fontFamily=Readex Pro;fontSize=12;fontStyle=0;fontSource=https%3A%2F%2Ffonts.googleapis.com%2Fcss%3Ffamily%3DReadex%2BPro;gradientDirection=south;shadow=0;glass=0;rounded=0;fillColor=#003CB3;strokeColor=#001DBC;verticalAlign=middle;fontColor=#ffffff;gradientColor=#00256E;" vertex="1" parent="1">
                    <mxGeometry x="630" y="1110" width="100" height="40" as="geometry"/>
                </mxCell>
                <mxCell id="RA6LiPNnP_DhFnkGQbrV-3" value="غرامة مشترك" style="whiteSpace=wrap;html=1;align=center;fontFamily=Readex Pro;fontSize=12;fontStyle=0;fontSource=https%3A%2F%2Ffonts.googleapis.com%2Fcss%3Ffamily%3DReadex%2BPro;gradientDirection=south;shadow=0;glass=0;rounded=0;fillColor=#003CB3;strokeColor=#001DBC;verticalAlign=middle;fontColor=#ffffff;gradientColor=#00256E;" vertex="1" parent="1">
                    <mxGeometry x="220" y="1110" width="100" height="40" as="geometry"/>
                </mxCell>
                <mxCell id="RA6LiPNnP_DhFnkGQbrV-4" value="" style="edgeStyle=orthogonalEdgeStyle;rounded=0;orthogonalLoop=1;jettySize=auto;html=1;entryX=1;entryY=0.5;entryDx=0;entryDy=0;endArrow=ERoneToMany;endFill=0;fontStyle=1;fontSize=14;spacingRight=20;" edge="1" parent="1" source="RA6LiPNnP_DhFnkGQbrV-5" target="RA6LiPNnP_DhFnkGQbrV-3">
                    <mxGeometry x="0.4" y="-10" relative="1" as="geometry">
                        <mxPoint as="offset"/>
                    </mxGeometry>
                </mxCell>
                <mxCell id="RA6LiPNnP_DhFnkGQbrV-5" value="تحدد" style="shape=rhombus;perimeter=rhombusPerimeter;whiteSpace=wrap;html=1;align=center;fontSize=14;fontFamily=Times New Roman;fontStyle=1" vertex="1" parent="1">
                    <mxGeometry x="420" y="1100" width="120" height="60" as="geometry"/>
                </mxCell>
                <mxCell id="RA6LiPNnP_DhFnkGQbrV-6" value="" style="edgeStyle=orthogonalEdgeStyle;rounded=0;orthogonalLoop=1;jettySize=auto;html=1;exitX=0;exitY=0.5;exitDx=0;exitDy=0;entryX=1;entryY=0.5;entryDx=0;entryDy=0;endArrow=none;startFill=0;startArrow=ERone;fontSize=14;spacingBottom=0;spacingLeft=20;fontStyle=1" edge="1" parent="1" source="RA6LiPNnP_DhFnkGQbrV-7" target="RA6LiPNnP_DhFnkGQbrV-10">
                    <mxGeometry x="-0.3333" y="-10" relative="1" as="geometry">
                        <mxPoint as="offset"/>
                    </mxGeometry>
                </mxCell>
                <mxCell id="RA6LiPNnP_DhFnkGQbrV-7" value="غرامة المشترك" style="whiteSpace=wrap;html=1;align=center;fontFamily=Readex Pro;fontSize=12;fontStyle=0;fontSource=https%3A%2F%2Ffonts.googleapis.com%2Fcss%3Ffamily%3DReadex%2BPro;gradientDirection=south;shadow=0;glass=0;rounded=0;fillColor=#003CB3;strokeColor=#001DBC;verticalAlign=middle;fontColor=#ffffff;gradientColor=#00256E;" vertex="1" parent="1">
                    <mxGeometry x="630" y="1179" width="100" height="40" as="geometry"/>
                </mxCell>
                <mxCell id="RA6LiPNnP_DhFnkGQbrV-8" value="المشترك" style="whiteSpace=wrap;html=1;align=center;fontFamily=Readex Pro;fontSize=12;fontStyle=0;fontSource=https%3A%2F%2Ffonts.googleapis.com%2Fcss%3Ffamily%3DReadex%2BPro;gradientDirection=south;shadow=0;glass=0;rounded=0;fillColor=#003CB3;strokeColor=#001DBC;verticalAlign=middle;fontColor=#ffffff;gradientColor=#00256E;" vertex="1" parent="1">
                    <mxGeometry x="220" y="1179" width="100" height="40" as="geometry"/>
                </mxCell>
                <mxCell id="RA6LiPNnP_DhFnkGQbrV-9" value="" style="edgeStyle=orthogonalEdgeStyle;rounded=0;orthogonalLoop=1;jettySize=auto;html=1;entryX=1;entryY=0.5;entryDx=0;entryDy=0;endArrow=ERoneToMany;endFill=0;fontStyle=1;fontSize=14;spacingRight=20;" edge="1" parent="1" source="RA6LiPNnP_DhFnkGQbrV-10" target="RA6LiPNnP_DhFnkGQbrV-8">
                    <mxGeometry x="0.4" y="-10" relative="1" as="geometry">
                        <mxPoint as="offset"/>
                    </mxGeometry>
                </mxCell>
                <mxCell id="RA6LiPNnP_DhFnkGQbrV-10" value="تخص" style="shape=rhombus;perimeter=rhombusPerimeter;whiteSpace=wrap;html=1;align=center;fontSize=14;fontFamily=Times New Roman;fontStyle=1" vertex="1" parent="1">
                    <mxGeometry x="420" y="1169" width="120" height="60" as="geometry"/>
                </mxCell>
                <mxCell id="srjLFZNk7vBXf1xuwpPk-1" value="" style="edgeStyle=orthogonalEdgeStyle;rounded=0;orthogonalLoop=1;jettySize=auto;html=1;exitX=0;exitY=0.5;exitDx=0;exitDy=0;entryX=1;entryY=0.5;entryDx=0;entryDy=0;endArrow=none;startFill=0;startArrow=ERone;fontSize=14;spacingBottom=0;spacingLeft=20;fontStyle=1" edge="1" parent="1" source="srjLFZNk7vBXf1xuwpPk-2" target="srjLFZNk7vBXf1xuwpPk-5">
                    <mxGeometry x="-0.3333" y="-10" relative="1" as="geometry">
                        <mxPoint as="offset"/>
                    </mxGeometry>
                </mxCell>
                <mxCell id="srjLFZNk7vBXf1xuwpPk-2" value="المشترك" style="whiteSpace=wrap;html=1;align=center;fontFamily=Readex Pro;fontSize=12;fontStyle=0;fontSource=https%3A%2F%2Ffonts.googleapis.com%2Fcss%3Ffamily%3DReadex%2BPro;gradientDirection=south;shadow=0;glass=0;rounded=0;fillColor=#003CB3;strokeColor=#001DBC;verticalAlign=middle;fontColor=#ffffff;gradientColor=#00256E;" vertex="1" parent="1">
                    <mxGeometry x="630" y="1270" width="100" height="40" as="geometry"/>
                </mxCell>
                <mxCell id="srjLFZNk7vBXf1xuwpPk-3" value="عداد" style="whiteSpace=wrap;html=1;align=center;fontFamily=Readex Pro;fontSize=12;fontStyle=0;fontSource=https%3A%2F%2Ffonts.googleapis.com%2Fcss%3Ffamily%3DReadex%2BPro;gradientDirection=south;shadow=0;glass=0;rounded=0;fillColor=#003CB3;strokeColor=#001DBC;verticalAlign=middle;fontColor=#ffffff;gradientColor=#00256E;" vertex="1" parent="1">
                    <mxGeometry x="220" y="1270" width="100" height="40" as="geometry"/>
                </mxCell>
                <mxCell id="srjLFZNk7vBXf1xuwpPk-4" value="" style="edgeStyle=orthogonalEdgeStyle;rounded=0;orthogonalLoop=1;jettySize=auto;html=1;entryX=1;entryY=0.5;entryDx=0;entryDy=0;endArrow=ERoneToMany;endFill=0;fontStyle=1;fontSize=14;spacingRight=20;" edge="1" parent="1" source="srjLFZNk7vBXf1xuwpPk-5" target="srjLFZNk7vBXf1xuwpPk-3">
                    <mxGeometry x="0.4" y="-10" relative="1" as="geometry">
                        <mxPoint as="offset"/>
                    </mxGeometry>
                </mxCell>
                <mxCell id="srjLFZNk7vBXf1xuwpPk-5" value="يملك" style="shape=rhombus;perimeter=rhombusPerimeter;whiteSpace=wrap;html=1;align=center;fontSize=14;fontFamily=Times New Roman;fontStyle=1" vertex="1" parent="1">
                    <mxGeometry x="420" y="1260" width="120" height="60" as="geometry"/>
                </mxCell>
                <mxCell id="sAElE4jlCfpQA6g5fOXF-1" value="" style="edgeStyle=orthogonalEdgeStyle;rounded=0;orthogonalLoop=1;jettySize=auto;html=1;exitX=0;exitY=0.5;exitDx=0;exitDy=0;entryX=1;entryY=0.5;entryDx=0;entryDy=0;endArrow=none;startFill=0;startArrow=ERone;fontSize=14;spacingBottom=0;spacingLeft=20;fontStyle=1" edge="1" parent="1" source="sAElE4jlCfpQA6g5fOXF-2" target="sAElE4jlCfpQA6g5fOXF-5">
                    <mxGeometry x="-0.3333" y="-10" relative="1" as="geometry">
                        <mxPoint as="offset"/>
                    </mxGeometry>
                </mxCell>
                <mxCell id="sAElE4jlCfpQA6g5fOXF-2" value="الفاتورة" style="whiteSpace=wrap;html=1;align=center;fontFamily=Readex Pro;fontSize=12;fontStyle=0;fontSource=https%3A%2F%2Ffonts.googleapis.com%2Fcss%3Ffamily%3DReadex%2BPro;gradientDirection=south;shadow=0;glass=0;rounded=0;fillColor=#003CB3;strokeColor=#001DBC;verticalAlign=middle;fontColor=#ffffff;gradientColor=#00256E;" vertex="1" parent="1">
                    <mxGeometry x="630" y="1360" width="100" height="40" as="geometry"/>
                </mxCell>
                <mxCell id="sAElE4jlCfpQA6g5fOXF-3" value="عداد" style="whiteSpace=wrap;html=1;align=center;fontFamily=Readex Pro;fontSize=12;fontStyle=0;fontSource=https%3A%2F%2Ffonts.googleapis.com%2Fcss%3Ffamily%3DReadex%2BPro;gradientDirection=south;shadow=0;glass=0;rounded=0;fillColor=#003CB3;strokeColor=#001DBC;verticalAlign=middle;fontColor=#ffffff;gradientColor=#00256E;" vertex="1" parent="1">
                    <mxGeometry x="220" y="1360" width="100" height="40" as="geometry"/>
                </mxCell>
                <mxCell id="sAElE4jlCfpQA6g5fOXF-4" value="" style="edgeStyle=orthogonalEdgeStyle;rounded=0;orthogonalLoop=1;jettySize=auto;html=1;entryX=1;entryY=0.5;entryDx=0;entryDy=0;endArrow=ERoneToMany;endFill=0;fontStyle=1;fontSize=14;spacingRight=20;" edge="1" parent="1" source="sAElE4jlCfpQA6g5fOXF-5" target="sAElE4jlCfpQA6g5fOXF-3">
                    <mxGeometry x="0.4" y="-10" relative="1" as="geometry">
                        <mxPoint as="offset"/>
                    </mxGeometry>
                </mxCell>
                <mxCell id="sAElE4jlCfpQA6g5fOXF-5" value="ترتبط ب" style="shape=rhombus;perimeter=rhombusPerimeter;whiteSpace=wrap;html=1;align=center;fontSize=14;fontFamily=Times New Roman;fontStyle=1" vertex="1" parent="1">
                    <mxGeometry x="420" y="1350" width="120" height="60" as="geometry"/>
                </mxCell>
                <mxCell id="d_T71TXL8LbB6PviB8yI-1" value="" style="edgeStyle=orthogonalEdgeStyle;rounded=0;orthogonalLoop=1;jettySize=auto;html=1;exitX=0;exitY=0.5;exitDx=0;exitDy=0;entryX=1;entryY=0.5;entryDx=0;entryDy=0;endArrow=none;startFill=0;startArrow=ERone;fontSize=14;spacingBottom=0;spacingLeft=20;fontStyle=1" edge="1" parent="1" source="d_T71TXL8LbB6PviB8yI-2" target="d_T71TXL8LbB6PviB8yI-5">
                    <mxGeometry x="-0.3333" y="-10" relative="1" as="geometry">
                        <mxPoint as="offset"/>
                    </mxGeometry>
                </mxCell>
                <mxCell id="d_T71TXL8LbB6PviB8yI-2" value="المستحق" style="whiteSpace=wrap;html=1;align=center;fontFamily=Readex Pro;fontSize=12;fontStyle=0;fontSource=https%3A%2F%2Ffonts.googleapis.com%2Fcss%3Ffamily%3DReadex%2BPro;gradientDirection=south;shadow=0;glass=0;rounded=0;fillColor=#003CB3;strokeColor=#001DBC;verticalAlign=middle;fontColor=#ffffff;gradientColor=#00256E;" vertex="1" parent="1">
                    <mxGeometry x="630" y="1450" width="100" height="40" as="geometry"/>
                </mxCell>
                <mxCell id="d_T71TXL8LbB6PviB8yI-3" value="العداد" style="whiteSpace=wrap;html=1;align=center;fontFamily=Readex Pro;fontSize=12;fontStyle=0;fontSource=https%3A%2F%2Ffonts.googleapis.com%2Fcss%3Ffamily%3DReadex%2BPro;gradientDirection=south;shadow=0;glass=0;rounded=0;fillColor=#003CB3;strokeColor=#001DBC;verticalAlign=middle;fontColor=#ffffff;gradientColor=#00256E;" vertex="1" parent="1">
                    <mxGeometry x="220" y="1450" width="100" height="40" as="geometry"/>
                </mxCell>
                <mxCell id="d_T71TXL8LbB6PviB8yI-4" value="" style="edgeStyle=orthogonalEdgeStyle;rounded=0;orthogonalLoop=1;jettySize=auto;html=1;entryX=1;entryY=0.5;entryDx=0;entryDy=0;endArrow=ERoneToMany;endFill=0;fontStyle=1;fontSize=14;spacingRight=20;" edge="1" parent="1" source="d_T71TXL8LbB6PviB8yI-5" target="d_T71TXL8LbB6PviB8yI-3">
                    <mxGeometry x="0.4" y="-10" relative="1" as="geometry">
                        <mxPoint as="offset"/>
                    </mxGeometry>
                </mxCell>
                <mxCell id="d_T71TXL8LbB6PviB8yI-5" value="تخص" style="shape=rhombus;perimeter=rhombusPerimeter;whiteSpace=wrap;html=1;align=center;fontSize=14;fontFamily=Times New Roman;fontStyle=1" vertex="1" parent="1">
                    <mxGeometry x="420" y="1440" width="120" height="60" as="geometry"/>
                </mxCell>
                <mxCell id="p0pf_Z-NjZ85n1qvyXe9-1" value="" style="edgeStyle=orthogonalEdgeStyle;rounded=0;orthogonalLoop=1;jettySize=auto;html=1;exitX=0;exitY=0.5;exitDx=0;exitDy=0;entryX=1;entryY=0.5;entryDx=0;entryDy=0;endArrow=none;startFill=0;startArrow=ERone;fontSize=14;spacingBottom=0;spacingLeft=20;fontStyle=1" edge="1" parent="1" source="p0pf_Z-NjZ85n1qvyXe9-2" target="p0pf_Z-NjZ85n1qvyXe9-5">
                    <mxGeometry x="-0.3333" y="-10" relative="1" as="geometry">
                        <mxPoint as="offset"/>
                    </mxGeometry>
                </mxCell>
                <mxCell id="p0pf_Z-NjZ85n1qvyXe9-2" value="المدفوع" style="whiteSpace=wrap;html=1;align=center;fontFamily=Readex Pro;fontSize=12;fontStyle=0;fontSource=https%3A%2F%2Ffonts.googleapis.com%2Fcss%3Ffamily%3DReadex%2BPro;gradientDirection=south;shadow=0;glass=0;rounded=0;fillColor=#003CB3;strokeColor=#001DBC;verticalAlign=middle;fontColor=#ffffff;gradientColor=#00256E;" vertex="1" parent="1">
                    <mxGeometry x="630" y="1530" width="100" height="40" as="geometry"/>
                </mxCell>
                <mxCell id="p0pf_Z-NjZ85n1qvyXe9-3" value="الفاتورة" style="whiteSpace=wrap;html=1;align=center;fontFamily=Readex Pro;fontSize=12;fontStyle=0;fontSource=https%3A%2F%2Ffonts.googleapis.com%2Fcss%3Ffamily%3DReadex%2BPro;gradientDirection=south;shadow=0;glass=0;rounded=0;fillColor=#003CB3;strokeColor=#001DBC;verticalAlign=middle;fontColor=#ffffff;gradientColor=#00256E;" vertex="1" parent="1">
                    <mxGeometry x="220" y="1530" width="100" height="40" as="geometry"/>
                </mxCell>
                <mxCell id="p0pf_Z-NjZ85n1qvyXe9-4" value="" style="edgeStyle=orthogonalEdgeStyle;rounded=0;orthogonalLoop=1;jettySize=auto;html=1;entryX=1;entryY=0.5;entryDx=0;entryDy=0;endArrow=ERoneToMany;endFill=0;fontStyle=1;fontSize=14;spacingRight=20;" edge="1" parent="1" source="p0pf_Z-NjZ85n1qvyXe9-5" target="p0pf_Z-NjZ85n1qvyXe9-3">
                    <mxGeometry x="0.4" y="-10" relative="1" as="geometry">
                        <mxPoint as="offset"/>
                    </mxGeometry>
                </mxCell>
                <mxCell id="p0pf_Z-NjZ85n1qvyXe9-5" value="يخص" style="shape=rhombus;perimeter=rhombusPerimeter;whiteSpace=wrap;html=1;align=center;fontSize=14;fontFamily=Times New Roman;fontStyle=1" vertex="1" parent="1">
                    <mxGeometry x="420" y="1520" width="120" height="60" as="geometry"/>
                </mxCell>
                <mxCell id="p0pf_Z-NjZ85n1qvyXe9-6" value="" style="edgeStyle=orthogonalEdgeStyle;rounded=0;orthogonalLoop=1;jettySize=auto;html=1;exitX=0;exitY=0.5;exitDx=0;exitDy=0;entryX=1;entryY=0.5;entryDx=0;entryDy=0;endArrow=none;startFill=0;startArrow=ERone;fontSize=14;spacingBottom=0;spacingLeft=20;fontStyle=1" edge="1" parent="1" source="p0pf_Z-NjZ85n1qvyXe9-7" target="p0pf_Z-NjZ85n1qvyXe9-10">
                    <mxGeometry x="-0.3333" y="-10" relative="1" as="geometry">
                        <mxPoint as="offset"/>
                    </mxGeometry>
                </mxCell>
                <mxCell id="p0pf_Z-NjZ85n1qvyXe9-7" value="المتأخر" style="whiteSpace=wrap;html=1;align=center;fontFamily=Readex Pro;fontSize=12;fontStyle=0;fontSource=https%3A%2F%2Ffonts.googleapis.com%2Fcss%3Ffamily%3DReadex%2BPro;gradientDirection=south;shadow=0;glass=0;rounded=0;fillColor=#003CB3;strokeColor=#001DBC;verticalAlign=middle;fontColor=#ffffff;gradientColor=#00256E;" vertex="1" parent="1">
                    <mxGeometry x="630" y="1610" width="100" height="40" as="geometry"/>
                </mxCell>
                <mxCell id="p0pf_Z-NjZ85n1qvyXe9-8" value="الفاتورة" style="whiteSpace=wrap;html=1;align=center;fontFamily=Readex Pro;fontSize=12;fontStyle=0;fontSource=https%3A%2F%2Ffonts.googleapis.com%2Fcss%3Ffamily%3DReadex%2BPro;gradientDirection=south;shadow=0;glass=0;rounded=0;fillColor=#003CB3;strokeColor=#001DBC;verticalAlign=middle;fontColor=#ffffff;gradientColor=#00256E;" vertex="1" parent="1">
                    <mxGeometry x="220" y="1610" width="100" height="40" as="geometry"/>
                </mxCell>
                <mxCell id="p0pf_Z-NjZ85n1qvyXe9-9" value="" style="edgeStyle=orthogonalEdgeStyle;rounded=0;orthogonalLoop=1;jettySize=auto;html=1;entryX=1;entryY=0.5;entryDx=0;entryDy=0;endArrow=ERoneToMany;endFill=0;fontStyle=1;fontSize=14;spacingRight=20;" edge="1" parent="1" source="p0pf_Z-NjZ85n1qvyXe9-10" target="p0pf_Z-NjZ85n1qvyXe9-8">
                    <mxGeometry x="0.4" y="-10" relative="1" as="geometry">
                        <mxPoint as="offset"/>
                    </mxGeometry>
                </mxCell>
                <mxCell id="p0pf_Z-NjZ85n1qvyXe9-10" value="يخص" style="shape=rhombus;perimeter=rhombusPerimeter;whiteSpace=wrap;html=1;align=center;fontSize=14;fontFamily=Times New Roman;fontStyle=1" vertex="1" parent="1">
                    <mxGeometry x="420" y="1600" width="120" height="60" as="geometry"/>
                </mxCell>
            </root>
        </mxGraphModel>
    </diagram>
    <diagram id="xPoSFCAB_cl0AWXFFLEt" name="Page-3">
        <mxGraphModel dx="832" dy="432" grid="1" gridSize="10" guides="1" tooltips="1" connect="1" arrows="1" fold="1" page="1" pageScale="1" pageWidth="827" pageHeight="1169" math="0" shadow="0">
            <root>
                <mxCell id="0"/>
                <mxCell id="1" parent="0"/>
                <mxCell id="6lniKMHnynfK3sxDc4WD-1" value="" style="edgeStyle=orthogonalEdgeStyle;rounded=0;orthogonalLoop=1;jettySize=auto;html=1;exitX=0;exitY=0.5;exitDx=0;exitDy=0;entryX=1;entryY=0.5;entryDx=0;entryDy=0;endArrow=none;startFill=0;startArrow=ERone;fontSize=14;spacingBottom=0;spacingLeft=20;fontStyle=1" edge="1" parent="1" source="6lniKMHnynfK3sxDc4WD-2" target="6lniKMHnynfK3sxDc4WD-5">
                    <mxGeometry x="-0.3333" y="-10" relative="1" as="geometry">
                        <mxPoint as="offset"/>
                    </mxGeometry>
                </mxCell>
                <mxCell id="6lniKMHnynfK3sxDc4WD-2" value="محصل" style="whiteSpace=wrap;html=1;align=center;fontFamily=Readex Pro;fontSize=12;fontStyle=0;fontSource=https%3A%2F%2Ffonts.googleapis.com%2Fcss%3Ffamily%3DReadex%2BPro;gradientDirection=south;shadow=0;glass=0;rounded=0;fillColor=#003CB3;strokeColor=#001DBC;verticalAlign=middle;fontColor=#ffffff;gradientColor=#00256E;" vertex="1" parent="1">
                    <mxGeometry x="630" y="50" width="100" height="40" as="geometry"/>
                </mxCell>
                <mxCell id="6lniKMHnynfK3sxDc4WD-3" value="مربع" style="whiteSpace=wrap;html=1;align=center;fontFamily=Readex Pro;fontSize=12;fontStyle=0;fontSource=https%3A%2F%2Ffonts.googleapis.com%2Fcss%3Ffamily%3DReadex%2BPro;gradientDirection=south;shadow=0;glass=0;rounded=0;fillColor=#003CB3;strokeColor=#001DBC;verticalAlign=middle;fontColor=#ffffff;gradientColor=#00256E;" vertex="1" parent="1">
                    <mxGeometry x="220" y="50" width="100" height="40" as="geometry"/>
                </mxCell>
                <mxCell id="6lniKMHnynfK3sxDc4WD-4" value="" style="edgeStyle=orthogonalEdgeStyle;rounded=0;orthogonalLoop=1;jettySize=auto;html=1;entryX=1;entryY=0.5;entryDx=0;entryDy=0;endArrow=ERoneToMany;endFill=0;fontStyle=1;fontSize=14;spacingRight=20;" edge="1" parent="1" source="6lniKMHnynfK3sxDc4WD-5" target="6lniKMHnynfK3sxDc4WD-3">
                    <mxGeometry x="0.4" y="-10" relative="1" as="geometry">
                        <mxPoint as="offset"/>
                    </mxGeometry>
                </mxCell>
                <mxCell id="6lniKMHnynfK3sxDc4WD-5" value="يعمل في" style="shape=rhombus;perimeter=rhombusPerimeter;whiteSpace=wrap;html=1;align=center;fontSize=14;fontFamily=Times New Roman;fontStyle=1" vertex="1" parent="1">
                    <mxGeometry x="420" y="40" width="120" height="60" as="geometry"/>
                </mxCell>
                <mxCell id="6lniKMHnynfK3sxDc4WD-6" value="" style="edgeStyle=orthogonalEdgeStyle;rounded=0;orthogonalLoop=1;jettySize=auto;html=1;exitX=0;exitY=0.5;exitDx=0;exitDy=0;entryX=1;entryY=0.5;entryDx=0;entryDy=0;endArrow=none;startFill=0;startArrow=ERone;fontSize=14;spacingBottom=0;spacingLeft=20;fontStyle=1" edge="1" parent="1" source="6lniKMHnynfK3sxDc4WD-7" target="6lniKMHnynfK3sxDc4WD-10">
                    <mxGeometry x="-0.3333" y="-10" relative="1" as="geometry">
                        <mxPoint as="offset"/>
                    </mxGeometry>
                </mxCell>
                <mxCell id="6lniKMHnynfK3sxDc4WD-7" value="منطقة" style="whiteSpace=wrap;html=1;align=center;fontFamily=Readex Pro;fontSize=12;fontStyle=0;fontSource=https%3A%2F%2Ffonts.googleapis.com%2Fcss%3Ffamily%3DReadex%2BPro;gradientDirection=south;shadow=0;glass=0;rounded=0;fillColor=#003CB3;strokeColor=#001DBC;verticalAlign=middle;fontColor=#ffffff;gradientColor=#00256E;" vertex="1" parent="1">
                    <mxGeometry x="630" y="140" width="100" height="40" as="geometry"/>
                </mxCell>
                <mxCell id="6lniKMHnynfK3sxDc4WD-8" value="مربع" style="whiteSpace=wrap;html=1;align=center;fontFamily=Readex Pro;fontSize=12;fontStyle=0;fontSource=https%3A%2F%2Ffonts.googleapis.com%2Fcss%3Ffamily%3DReadex%2BPro;gradientDirection=south;shadow=0;glass=0;rounded=0;fillColor=#003CB3;strokeColor=#001DBC;verticalAlign=middle;fontColor=#ffffff;gradientColor=#00256E;" vertex="1" parent="1">
                    <mxGeometry x="220" y="140" width="100" height="40" as="geometry"/>
                </mxCell>
                <mxCell id="6lniKMHnynfK3sxDc4WD-9" value="" style="edgeStyle=orthogonalEdgeStyle;rounded=0;orthogonalLoop=1;jettySize=auto;html=1;entryX=1;entryY=0.5;entryDx=0;entryDy=0;endArrow=ERoneToMany;endFill=0;fontStyle=1;fontSize=14;spacingRight=20;" edge="1" parent="1" source="6lniKMHnynfK3sxDc4WD-10" target="6lniKMHnynfK3sxDc4WD-8">
                    <mxGeometry x="0.4" y="-10" relative="1" as="geometry">
                        <mxPoint as="offset"/>
                    </mxGeometry>
                </mxCell>
                <mxCell id="6lniKMHnynfK3sxDc4WD-10" value="تحتوي" style="shape=rhombus;perimeter=rhombusPerimeter;whiteSpace=wrap;html=1;align=center;fontSize=14;fontFamily=Times New Roman;fontStyle=1" vertex="1" parent="1">
                    <mxGeometry x="420" y="130" width="120" height="60" as="geometry"/>
                </mxCell>
                <mxCell id="6lniKMHnynfK3sxDc4WD-11" value="" style="edgeStyle=orthogonalEdgeStyle;rounded=0;orthogonalLoop=1;jettySize=auto;html=1;exitX=0;exitY=0.5;exitDx=0;exitDy=0;entryX=1;entryY=0.5;entryDx=0;entryDy=0;endArrow=none;startFill=0;startArrow=ERone;fontSize=14;spacingBottom=0;spacingLeft=20;fontStyle=1" edge="1" parent="1" source="6lniKMHnynfK3sxDc4WD-12" target="6lniKMHnynfK3sxDc4WD-15">
                    <mxGeometry x="-0.3333" y="-10" relative="1" as="geometry">
                        <mxPoint as="offset"/>
                    </mxGeometry>
                </mxCell>
                <mxCell id="6lniKMHnynfK3sxDc4WD-12" value="العداد المركزي" style="whiteSpace=wrap;html=1;align=center;fontFamily=Readex Pro;fontSize=12;fontStyle=0;fontSource=https%3A%2F%2Ffonts.googleapis.com%2Fcss%3Ffamily%3DReadex%2BPro;gradientDirection=south;shadow=0;glass=0;rounded=0;fillColor=#003CB3;strokeColor=#001DBC;verticalAlign=middle;fontColor=#ffffff;gradientColor=#00256E;" vertex="1" parent="1">
                    <mxGeometry x="630" y="230" width="100" height="40" as="geometry"/>
                </mxCell>
                <mxCell id="6lniKMHnynfK3sxDc4WD-13" value="منطقة" style="whiteSpace=wrap;html=1;align=center;fontFamily=Readex Pro;fontSize=12;fontStyle=0;fontSource=https%3A%2F%2Ffonts.googleapis.com%2Fcss%3Ffamily%3DReadex%2BPro;gradientDirection=south;shadow=0;glass=0;rounded=0;fillColor=#003CB3;strokeColor=#001DBC;verticalAlign=middle;fontColor=#ffffff;gradientColor=#00256E;" vertex="1" parent="1">
                    <mxGeometry x="220" y="230" width="100" height="40" as="geometry"/>
                </mxCell>
                <mxCell id="6lniKMHnynfK3sxDc4WD-14" value="" style="edgeStyle=orthogonalEdgeStyle;rounded=0;orthogonalLoop=1;jettySize=auto;html=1;entryX=1;entryY=0.5;entryDx=0;entryDy=0;endArrow=ERoneToMany;endFill=0;fontStyle=1;fontSize=14;spacingRight=20;" edge="1" parent="1" source="6lniKMHnynfK3sxDc4WD-15" target="6lniKMHnynfK3sxDc4WD-13">
                    <mxGeometry x="0.4" y="-10" relative="1" as="geometry">
                        <mxPoint as="offset"/>
                    </mxGeometry>
                </mxCell>
                <mxCell id="6lniKMHnynfK3sxDc4WD-15" value="يرتبط ب" style="shape=rhombus;perimeter=rhombusPerimeter;whiteSpace=wrap;html=1;align=center;fontSize=14;fontFamily=Times New Roman;fontStyle=1" vertex="1" parent="1">
                    <mxGeometry x="420" y="220" width="120" height="60" as="geometry"/>
                </mxCell>
                <mxCell id="6lniKMHnynfK3sxDc4WD-16" value="" style="edgeStyle=orthogonalEdgeStyle;rounded=0;orthogonalLoop=1;jettySize=auto;html=1;exitX=0;exitY=0.5;exitDx=0;exitDy=0;entryX=1;entryY=0.5;entryDx=0;entryDy=0;endArrow=none;startFill=0;startArrow=ERone;fontSize=14;spacingBottom=0;spacingLeft=20;fontStyle=1" edge="1" parent="1" source="6lniKMHnynfK3sxDc4WD-17" target="6lniKMHnynfK3sxDc4WD-20">
                    <mxGeometry x="-0.3333" y="-10" relative="1" as="geometry">
                        <mxPoint as="offset"/>
                    </mxGeometry>
                </mxCell>
                <mxCell id="6lniKMHnynfK3sxDc4WD-17" value="سجلات العداد المركزي" style="whiteSpace=wrap;html=1;align=center;fontFamily=Readex Pro;fontSize=12;fontStyle=0;fontSource=https%3A%2F%2Ffonts.googleapis.com%2Fcss%3Ffamily%3DReadex%2BPro;gradientDirection=south;shadow=0;glass=0;rounded=0;fillColor=#003CB3;strokeColor=#001DBC;verticalAlign=middle;fontColor=#ffffff;gradientColor=#00256E;" vertex="1" parent="1">
                    <mxGeometry x="630" y="320" width="100" height="40" as="geometry"/>
                </mxCell>
                <mxCell id="6lniKMHnynfK3sxDc4WD-18" value="العداد المركزي" style="whiteSpace=wrap;html=1;align=center;fontFamily=Readex Pro;fontSize=12;fontStyle=0;fontSource=https%3A%2F%2Ffonts.googleapis.com%2Fcss%3Ffamily%3DReadex%2BPro;gradientDirection=south;shadow=0;glass=0;rounded=0;fillColor=#003CB3;strokeColor=#001DBC;verticalAlign=middle;fontColor=#ffffff;gradientColor=#00256E;" vertex="1" parent="1">
                    <mxGeometry x="220" y="320" width="100" height="40" as="geometry"/>
                </mxCell>
                <mxCell id="6lniKMHnynfK3sxDc4WD-19" value="" style="edgeStyle=orthogonalEdgeStyle;rounded=0;orthogonalLoop=1;jettySize=auto;html=1;entryX=1;entryY=0.5;entryDx=0;entryDy=0;endArrow=ERoneToMany;endFill=0;fontStyle=1;fontSize=14;spacingRight=20;" edge="1" parent="1" source="6lniKMHnynfK3sxDc4WD-20" target="6lniKMHnynfK3sxDc4WD-18">
                    <mxGeometry x="0.4" y="-10" relative="1" as="geometry">
                        <mxPoint as="offset"/>
                    </mxGeometry>
                </mxCell>
                <mxCell id="6lniKMHnynfK3sxDc4WD-20" value="تسجل" style="shape=rhombus;perimeter=rhombusPerimeter;whiteSpace=wrap;html=1;align=center;fontSize=14;fontFamily=Times New Roman;fontStyle=1" vertex="1" parent="1">
                    <mxGeometry x="420" y="310" width="120" height="60" as="geometry"/>
                </mxCell>
                <mxCell id="6lniKMHnynfK3sxDc4WD-21" value="" style="edgeStyle=orthogonalEdgeStyle;rounded=0;orthogonalLoop=1;jettySize=auto;html=1;exitX=0;exitY=0.5;exitDx=0;exitDy=0;entryX=1;entryY=0.5;entryDx=0;entryDy=0;endArrow=none;startFill=0;startArrow=ERone;fontSize=14;spacingBottom=0;spacingLeft=20;fontStyle=1" edge="1" parent="1" source="6lniKMHnynfK3sxDc4WD-22" target="6lniKMHnynfK3sxDc4WD-25">
                    <mxGeometry x="-0.3333" y="-10" relative="1" as="geometry">
                        <mxPoint as="offset"/>
                    </mxGeometry>
                </mxCell>
                <mxCell id="6lniKMHnynfK3sxDc4WD-22" value="نوع العقد" style="whiteSpace=wrap;html=1;align=center;fontFamily=Readex Pro;fontSize=12;fontStyle=0;fontSource=https%3A%2F%2Ffonts.googleapis.com%2Fcss%3Ffamily%3DReadex%2BPro;gradientDirection=south;shadow=0;glass=0;rounded=0;fillColor=#003CB3;strokeColor=#001DBC;verticalAlign=middle;fontColor=#ffffff;gradientColor=#00256E;" vertex="1" parent="1">
                    <mxGeometry x="630" y="400" width="100" height="40" as="geometry"/>
                </mxCell>
                <mxCell id="6lniKMHnynfK3sxDc4WD-23" value="العقد" style="whiteSpace=wrap;html=1;align=center;fontFamily=Readex Pro;fontSize=12;fontStyle=0;fontSource=https%3A%2F%2Ffonts.googleapis.com%2Fcss%3Ffamily%3DReadex%2BPro;gradientDirection=south;shadow=0;glass=0;rounded=0;fillColor=#003CB3;strokeColor=#001DBC;verticalAlign=middle;fontColor=#ffffff;gradientColor=#00256E;" vertex="1" parent="1">
                    <mxGeometry x="220" y="400" width="100" height="40" as="geometry"/>
                </mxCell>
                <mxCell id="6lniKMHnynfK3sxDc4WD-24" value="" style="edgeStyle=orthogonalEdgeStyle;rounded=0;orthogonalLoop=1;jettySize=auto;html=1;entryX=1;entryY=0.5;entryDx=0;entryDy=0;endArrow=ERoneToMany;endFill=0;fontStyle=1;fontSize=14;spacingRight=20;" edge="1" parent="1" source="6lniKMHnynfK3sxDc4WD-25" target="6lniKMHnynfK3sxDc4WD-23">
                    <mxGeometry x="0.4" y="-10" relative="1" as="geometry">
                        <mxPoint as="offset"/>
                    </mxGeometry>
                </mxCell>
                <mxCell id="6lniKMHnynfK3sxDc4WD-25" value="يحدد" style="shape=rhombus;perimeter=rhombusPerimeter;whiteSpace=wrap;html=1;align=center;fontSize=14;fontFamily=Times New Roman;fontStyle=1" vertex="1" parent="1">
                    <mxGeometry x="420" y="390" width="120" height="60" as="geometry"/>
                </mxCell>
                <mxCell id="6lniKMHnynfK3sxDc4WD-26" value="" style="edgeStyle=orthogonalEdgeStyle;rounded=0;orthogonalLoop=1;jettySize=auto;html=1;exitX=0;exitY=0.5;exitDx=0;exitDy=0;entryX=1;entryY=0.5;entryDx=0;entryDy=0;endArrow=none;startFill=0;startArrow=ERone;fontSize=14;spacingBottom=0;spacingLeft=20;fontStyle=1" edge="1" parent="1" source="6lniKMHnynfK3sxDc4WD-27" target="6lniKMHnynfK3sxDc4WD-30">
                    <mxGeometry x="-0.3333" y="-10" relative="1" as="geometry">
                        <mxPoint as="offset"/>
                    </mxGeometry>
                </mxCell>
                <mxCell id="6lniKMHnynfK3sxDc4WD-27" value="عداد" style="whiteSpace=wrap;html=1;align=center;fontFamily=Readex Pro;fontSize=12;fontStyle=0;fontSource=https%3A%2F%2Ffonts.googleapis.com%2Fcss%3Ffamily%3DReadex%2BPro;gradientDirection=south;shadow=0;glass=0;rounded=0;fillColor=#003CB3;strokeColor=#001DBC;verticalAlign=middle;fontColor=#ffffff;gradientColor=#00256E;" vertex="1" parent="1">
                    <mxGeometry x="630" y="490" width="100" height="40" as="geometry"/>
                </mxCell>
                <mxCell id="6lniKMHnynfK3sxDc4WD-28" value="مربع" style="whiteSpace=wrap;html=1;align=center;fontFamily=Readex Pro;fontSize=12;fontStyle=0;fontSource=https%3A%2F%2Ffonts.googleapis.com%2Fcss%3Ffamily%3DReadex%2BPro;gradientDirection=south;shadow=0;glass=0;rounded=0;fillColor=#003CB3;strokeColor=#001DBC;verticalAlign=middle;fontColor=#ffffff;gradientColor=#00256E;" vertex="1" parent="1">
                    <mxGeometry x="220" y="490" width="100" height="40" as="geometry"/>
                </mxCell>
                <mxCell id="6lniKMHnynfK3sxDc4WD-29" value="" style="edgeStyle=orthogonalEdgeStyle;rounded=0;orthogonalLoop=1;jettySize=auto;html=1;entryX=1;entryY=0.5;entryDx=0;entryDy=0;endArrow=ERoneToMany;endFill=0;fontStyle=1;fontSize=14;spacingRight=20;" edge="1" parent="1" source="6lniKMHnynfK3sxDc4WD-30" target="6lniKMHnynfK3sxDc4WD-28">
                    <mxGeometry x="0.4" y="-10" relative="1" as="geometry">
                        <mxPoint as="offset"/>
                    </mxGeometry>
                </mxCell>
                <mxCell id="6lniKMHnynfK3sxDc4WD-30" value="يتبع" style="shape=rhombus;perimeter=rhombusPerimeter;whiteSpace=wrap;html=1;align=center;fontSize=14;fontFamily=Times New Roman;fontStyle=1" vertex="1" parent="1">
                    <mxGeometry x="420" y="480" width="120" height="60" as="geometry"/>
                </mxCell>
                <mxCell id="6lniKMHnynfK3sxDc4WD-31" value="" style="edgeStyle=orthogonalEdgeStyle;rounded=0;orthogonalLoop=1;jettySize=auto;html=1;exitX=0;exitY=0.5;exitDx=0;exitDy=0;entryX=1;entryY=0.5;entryDx=0;entryDy=0;endArrow=none;startFill=0;startArrow=ERone;fontSize=14;spacingBottom=0;spacingLeft=20;fontStyle=1" edge="1" parent="1" source="6lniKMHnynfK3sxDc4WD-32" target="6lniKMHnynfK3sxDc4WD-35">
                    <mxGeometry x="-0.3333" y="-10" relative="1" as="geometry">
                        <mxPoint as="offset"/>
                    </mxGeometry>
                </mxCell>
                <mxCell id="6lniKMHnynfK3sxDc4WD-32" value="حالة عداد" style="whiteSpace=wrap;html=1;align=center;fontFamily=Readex Pro;fontSize=12;fontStyle=0;fontSource=https%3A%2F%2Ffonts.googleapis.com%2Fcss%3Ffamily%3DReadex%2BPro;gradientDirection=south;shadow=0;glass=0;rounded=0;fillColor=#003CB3;strokeColor=#001DBC;verticalAlign=middle;fontColor=#ffffff;gradientColor=#00256E;" vertex="1" parent="1">
                    <mxGeometry x="630" y="580" width="100" height="40" as="geometry"/>
                </mxCell>
                <mxCell id="6lniKMHnynfK3sxDc4WD-33" value="عداد" style="whiteSpace=wrap;html=1;align=center;fontFamily=Readex Pro;fontSize=12;fontStyle=0;fontSource=https%3A%2F%2Ffonts.googleapis.com%2Fcss%3Ffamily%3DReadex%2BPro;gradientDirection=south;shadow=0;glass=0;rounded=0;fillColor=#003CB3;strokeColor=#001DBC;verticalAlign=middle;fontColor=#ffffff;gradientColor=#00256E;" vertex="1" parent="1">
                    <mxGeometry x="220" y="580" width="100" height="40" as="geometry"/>
                </mxCell>
                <mxCell id="6lniKMHnynfK3sxDc4WD-34" value="" style="edgeStyle=orthogonalEdgeStyle;rounded=0;orthogonalLoop=1;jettySize=auto;html=1;entryX=1;entryY=0.5;entryDx=0;entryDy=0;endArrow=ERoneToMany;endFill=0;fontStyle=1;fontSize=14;spacingRight=20;" edge="1" parent="1" source="6lniKMHnynfK3sxDc4WD-35" target="6lniKMHnynfK3sxDc4WD-33">
                    <mxGeometry x="0.4" y="-10" relative="1" as="geometry">
                        <mxPoint as="offset"/>
                    </mxGeometry>
                </mxCell>
                <mxCell id="6lniKMHnynfK3sxDc4WD-35" value="تحدد" style="shape=rhombus;perimeter=rhombusPerimeter;whiteSpace=wrap;html=1;align=center;fontSize=14;fontFamily=Times New Roman;fontStyle=1" vertex="1" parent="1">
                    <mxGeometry x="420" y="570" width="120" height="60" as="geometry"/>
                </mxCell>
                <mxCell id="6lniKMHnynfK3sxDc4WD-36" value="" style="edgeStyle=orthogonalEdgeStyle;rounded=0;orthogonalLoop=1;jettySize=auto;html=1;exitX=0;exitY=0.5;exitDx=0;exitDy=0;entryX=1;entryY=0.5;entryDx=0;entryDy=0;endArrow=none;startFill=0;startArrow=ERone;fontSize=14;spacingBottom=0;spacingLeft=20;fontStyle=1" edge="1" parent="1" source="6lniKMHnynfK3sxDc4WD-37" target="6lniKMHnynfK3sxDc4WD-40">
                    <mxGeometry x="-0.3333" y="-10" relative="1" as="geometry">
                        <mxPoint as="offset"/>
                    </mxGeometry>
                </mxCell>
                <mxCell id="6lniKMHnynfK3sxDc4WD-37" value="قراءات العداد" style="whiteSpace=wrap;html=1;align=center;fontFamily=Readex Pro;fontSize=12;fontStyle=0;fontSource=https%3A%2F%2Ffonts.googleapis.com%2Fcss%3Ffamily%3DReadex%2BPro;gradientDirection=south;shadow=0;glass=0;rounded=0;fillColor=#003CB3;strokeColor=#001DBC;verticalAlign=middle;fontColor=#ffffff;gradientColor=#00256E;" vertex="1" parent="1">
                    <mxGeometry x="630" y="660" width="100" height="40" as="geometry"/>
                </mxCell>
                <mxCell id="6lniKMHnynfK3sxDc4WD-38" value="عداد" style="whiteSpace=wrap;html=1;align=center;fontFamily=Readex Pro;fontSize=12;fontStyle=0;fontSource=https%3A%2F%2Ffonts.googleapis.com%2Fcss%3Ffamily%3DReadex%2BPro;gradientDirection=south;shadow=0;glass=0;rounded=0;fillColor=#003CB3;strokeColor=#001DBC;verticalAlign=middle;fontColor=#ffffff;gradientColor=#00256E;" vertex="1" parent="1">
                    <mxGeometry x="220" y="660" width="100" height="40" as="geometry"/>
                </mxCell>
                <mxCell id="6lniKMHnynfK3sxDc4WD-39" value="" style="edgeStyle=orthogonalEdgeStyle;rounded=0;orthogonalLoop=1;jettySize=auto;html=1;entryX=1;entryY=0.5;entryDx=0;entryDy=0;endArrow=ERoneToMany;endFill=0;fontStyle=1;fontSize=14;spacingRight=20;" edge="1" parent="1" source="6lniKMHnynfK3sxDc4WD-40" target="6lniKMHnynfK3sxDc4WD-38">
                    <mxGeometry x="0.4" y="-10" relative="1" as="geometry">
                        <mxPoint as="offset"/>
                    </mxGeometry>
                </mxCell>
                <mxCell id="6lniKMHnynfK3sxDc4WD-40" value="تسجل" style="shape=rhombus;perimeter=rhombusPerimeter;whiteSpace=wrap;html=1;align=center;fontSize=14;fontFamily=Times New Roman;fontStyle=1" vertex="1" parent="1">
                    <mxGeometry x="420" y="650" width="120" height="60" as="geometry"/>
                </mxCell>
                <mxCell id="6lniKMHnynfK3sxDc4WD-41" value="" style="edgeStyle=orthogonalEdgeStyle;rounded=0;orthogonalLoop=1;jettySize=auto;html=1;exitX=0;exitY=0.5;exitDx=0;exitDy=0;entryX=1;entryY=0.5;entryDx=0;entryDy=0;endArrow=none;startFill=0;startArrow=ERone;fontSize=14;spacingBottom=0;spacingLeft=20;fontStyle=1" edge="1" parent="1" source="6lniKMHnynfK3sxDc4WD-42" target="6lniKMHnynfK3sxDc4WD-45">
                    <mxGeometry x="-0.3333" y="-10" relative="1" as="geometry">
                        <mxPoint as="offset"/>
                    </mxGeometry>
                </mxCell>
                <mxCell id="6lniKMHnynfK3sxDc4WD-42" value="العقد" style="whiteSpace=wrap;html=1;align=center;fontFamily=Readex Pro;fontSize=12;fontStyle=0;fontSource=https%3A%2F%2Ffonts.googleapis.com%2Fcss%3Ffamily%3DReadex%2BPro;gradientDirection=south;shadow=0;glass=0;rounded=0;fillColor=#003CB3;strokeColor=#001DBC;verticalAlign=middle;fontColor=#ffffff;gradientColor=#00256E;" vertex="1" parent="1">
                    <mxGeometry x="630" y="760" width="100" height="40" as="geometry"/>
                </mxCell>
                <mxCell id="6lniKMHnynfK3sxDc4WD-43" value="المشترك" style="whiteSpace=wrap;html=1;align=center;fontFamily=Readex Pro;fontSize=12;fontStyle=0;fontSource=https%3A%2F%2Ffonts.googleapis.com%2Fcss%3Ffamily%3DReadex%2BPro;gradientDirection=south;shadow=0;glass=0;rounded=0;fillColor=#003CB3;strokeColor=#001DBC;verticalAlign=middle;fontColor=#ffffff;gradientColor=#00256E;" vertex="1" parent="1">
                    <mxGeometry x="220" y="760" width="100" height="40" as="geometry"/>
                </mxCell>
                <mxCell id="6lniKMHnynfK3sxDc4WD-44" value="" style="edgeStyle=orthogonalEdgeStyle;rounded=0;orthogonalLoop=1;jettySize=auto;html=1;entryX=1;entryY=0.5;entryDx=0;entryDy=0;endArrow=ERoneToMany;endFill=0;fontStyle=1;fontSize=14;spacingRight=20;" edge="1" parent="1" source="6lniKMHnynfK3sxDc4WD-45" target="6lniKMHnynfK3sxDc4WD-43">
                    <mxGeometry x="0.4" y="-10" relative="1" as="geometry">
                        <mxPoint as="offset"/>
                    </mxGeometry>
                </mxCell>
                <mxCell id="6lniKMHnynfK3sxDc4WD-45" value="يرتبط ب" style="shape=rhombus;perimeter=rhombusPerimeter;whiteSpace=wrap;html=1;align=center;fontSize=14;fontFamily=Times New Roman;fontStyle=1" vertex="1" parent="1">
                    <mxGeometry x="420" y="750" width="120" height="60" as="geometry"/>
                </mxCell>
                <mxCell id="6lniKMHnynfK3sxDc4WD-46" value="" style="edgeStyle=orthogonalEdgeStyle;rounded=0;orthogonalLoop=1;jettySize=auto;html=1;exitX=0;exitY=0.5;exitDx=0;exitDy=0;entryX=1;entryY=0.5;entryDx=0;entryDy=0;endArrow=none;startFill=0;startArrow=ERone;fontSize=14;spacingBottom=0;spacingLeft=20;fontStyle=1" edge="1" parent="1" source="6lniKMHnynfK3sxDc4WD-47" target="6lniKMHnynfK3sxDc4WD-50">
                    <mxGeometry x="-0.3333" y="-10" relative="1" as="geometry">
                        <mxPoint as="offset"/>
                    </mxGeometry>
                </mxCell>
                <mxCell id="6lniKMHnynfK3sxDc4WD-47" value="نوع الاشتراك" style="whiteSpace=wrap;html=1;align=center;fontFamily=Readex Pro;fontSize=12;fontStyle=0;fontSource=https%3A%2F%2Ffonts.googleapis.com%2Fcss%3Ffamily%3DReadex%2BPro;gradientDirection=south;shadow=0;glass=0;rounded=0;fillColor=#003CB3;strokeColor=#001DBC;verticalAlign=middle;fontColor=#ffffff;gradientColor=#00256E;" vertex="1" parent="1">
                    <mxGeometry x="630" y="850" width="100" height="40" as="geometry"/>
                </mxCell>
                <mxCell id="6lniKMHnynfK3sxDc4WD-48" value="عداد" style="whiteSpace=wrap;html=1;align=center;fontFamily=Readex Pro;fontSize=12;fontStyle=0;fontSource=https%3A%2F%2Ffonts.googleapis.com%2Fcss%3Ffamily%3DReadex%2BPro;gradientDirection=south;shadow=0;glass=0;rounded=0;fillColor=#003CB3;strokeColor=#001DBC;verticalAlign=middle;fontColor=#ffffff;gradientColor=#00256E;" vertex="1" parent="1">
                    <mxGeometry x="220" y="850" width="100" height="40" as="geometry"/>
                </mxCell>
                <mxCell id="6lniKMHnynfK3sxDc4WD-49" value="" style="edgeStyle=orthogonalEdgeStyle;rounded=0;orthogonalLoop=1;jettySize=auto;html=1;entryX=1;entryY=0.5;entryDx=0;entryDy=0;endArrow=ERoneToMany;endFill=0;fontStyle=1;fontSize=14;spacingRight=20;" edge="1" parent="1" source="6lniKMHnynfK3sxDc4WD-50" target="6lniKMHnynfK3sxDc4WD-48">
                    <mxGeometry x="0.4" y="-10" relative="1" as="geometry">
                        <mxPoint as="offset"/>
                    </mxGeometry>
                </mxCell>
                <mxCell id="6lniKMHnynfK3sxDc4WD-50" value="يعرف" style="shape=rhombus;perimeter=rhombusPerimeter;whiteSpace=wrap;html=1;align=center;fontSize=14;fontFamily=Times New Roman;fontStyle=1" vertex="1" parent="1">
                    <mxGeometry x="420" y="840" width="120" height="60" as="geometry"/>
                </mxCell>
                <mxCell id="6lniKMHnynfK3sxDc4WD-51" value="" style="edgeStyle=orthogonalEdgeStyle;rounded=0;orthogonalLoop=1;jettySize=auto;html=1;exitX=0;exitY=0.5;exitDx=0;exitDy=0;entryX=1;entryY=0.5;entryDx=0;entryDy=0;endArrow=none;startFill=0;startArrow=ERone;fontSize=14;spacingBottom=0;spacingLeft=20;fontStyle=1" edge="1" parent="1" source="6lniKMHnynfK3sxDc4WD-52" target="6lniKMHnynfK3sxDc4WD-55">
                    <mxGeometry x="-0.3333" y="-10" relative="1" as="geometry">
                        <mxPoint as="offset"/>
                    </mxGeometry>
                </mxCell>
                <mxCell id="6lniKMHnynfK3sxDc4WD-52" value="طلب خدمة" style="whiteSpace=wrap;html=1;align=center;fontFamily=Readex Pro;fontSize=12;fontStyle=0;fontSource=https%3A%2F%2Ffonts.googleapis.com%2Fcss%3Ffamily%3DReadex%2BPro;gradientDirection=south;shadow=0;glass=0;rounded=0;fillColor=#003CB3;strokeColor=#001DBC;verticalAlign=middle;fontColor=#ffffff;gradientColor=#00256E;" vertex="1" parent="1">
                    <mxGeometry x="630" y="927" width="100" height="40" as="geometry"/>
                </mxCell>
                <mxCell id="6lniKMHnynfK3sxDc4WD-53" value="مشترك" style="whiteSpace=wrap;html=1;align=center;fontFamily=Readex Pro;fontSize=12;fontStyle=0;fontSource=https%3A%2F%2Ffonts.googleapis.com%2Fcss%3Ffamily%3DReadex%2BPro;gradientDirection=south;shadow=0;glass=0;rounded=0;fillColor=#003CB3;strokeColor=#001DBC;verticalAlign=middle;fontColor=#ffffff;gradientColor=#00256E;" vertex="1" parent="1">
                    <mxGeometry x="220" y="927" width="100" height="40" as="geometry"/>
                </mxCell>
                <mxCell id="6lniKMHnynfK3sxDc4WD-54" value="" style="edgeStyle=orthogonalEdgeStyle;rounded=0;orthogonalLoop=1;jettySize=auto;html=1;entryX=1;entryY=0.5;entryDx=0;entryDy=0;endArrow=ERoneToMany;endFill=0;fontStyle=1;fontSize=14;spacingRight=20;" edge="1" parent="1" source="6lniKMHnynfK3sxDc4WD-55" target="6lniKMHnynfK3sxDc4WD-53">
                    <mxGeometry x="0.4" y="-10" relative="1" as="geometry">
                        <mxPoint as="offset"/>
                    </mxGeometry>
                </mxCell>
                <mxCell id="6lniKMHnynfK3sxDc4WD-55" value="ينتمي" style="shape=rhombus;perimeter=rhombusPerimeter;whiteSpace=wrap;html=1;align=center;fontSize=14;fontFamily=Times New Roman;fontStyle=1" vertex="1" parent="1">
                    <mxGeometry x="420" y="917" width="120" height="60" as="geometry"/>
                </mxCell>
                <mxCell id="6lniKMHnynfK3sxDc4WD-56" value="" style="edgeStyle=orthogonalEdgeStyle;rounded=0;orthogonalLoop=1;jettySize=auto;html=1;exitX=0;exitY=0.5;exitDx=0;exitDy=0;entryX=1;entryY=0.5;entryDx=0;entryDy=0;endArrow=none;startFill=0;startArrow=ERone;fontSize=14;spacingBottom=0;spacingLeft=20;fontStyle=1" edge="1" parent="1" source="6lniKMHnynfK3sxDc4WD-57" target="6lniKMHnynfK3sxDc4WD-60">
                    <mxGeometry x="-0.3333" y="-10" relative="1" as="geometry">
                        <mxPoint as="offset"/>
                    </mxGeometry>
                </mxCell>
                <mxCell id="6lniKMHnynfK3sxDc4WD-57" value="خدمة" style="whiteSpace=wrap;html=1;align=center;fontFamily=Readex Pro;fontSize=12;fontStyle=0;fontSource=https%3A%2F%2Ffonts.googleapis.com%2Fcss%3Ffamily%3DReadex%2BPro;gradientDirection=south;shadow=0;glass=0;rounded=0;fillColor=#003CB3;strokeColor=#001DBC;verticalAlign=middle;fontColor=#ffffff;gradientColor=#00256E;" vertex="1" parent="1">
                    <mxGeometry x="630" y="1020" width="100" height="40" as="geometry"/>
                </mxCell>
                <mxCell id="6lniKMHnynfK3sxDc4WD-58" value="طلب خدمة" style="whiteSpace=wrap;html=1;align=center;fontFamily=Readex Pro;fontSize=12;fontStyle=0;fontSource=https%3A%2F%2Ffonts.googleapis.com%2Fcss%3Ffamily%3DReadex%2BPro;gradientDirection=south;shadow=0;glass=0;rounded=0;fillColor=#003CB3;strokeColor=#001DBC;verticalAlign=middle;fontColor=#ffffff;gradientColor=#00256E;" vertex="1" parent="1">
                    <mxGeometry x="220" y="1020" width="100" height="40" as="geometry"/>
                </mxCell>
                <mxCell id="6lniKMHnynfK3sxDc4WD-59" value="" style="edgeStyle=orthogonalEdgeStyle;rounded=0;orthogonalLoop=1;jettySize=auto;html=1;entryX=1;entryY=0.5;entryDx=0;entryDy=0;endArrow=ERoneToMany;endFill=0;fontStyle=1;fontSize=14;spacingRight=20;" edge="1" parent="1" source="6lniKMHnynfK3sxDc4WD-60" target="6lniKMHnynfK3sxDc4WD-58">
                    <mxGeometry x="0.4" y="-10" relative="1" as="geometry">
                        <mxPoint as="offset"/>
                    </mxGeometry>
                </mxCell>
                <mxCell id="6lniKMHnynfK3sxDc4WD-60" value="تحدد" style="shape=rhombus;perimeter=rhombusPerimeter;whiteSpace=wrap;html=1;align=center;fontSize=14;fontFamily=Times New Roman;fontStyle=1" vertex="1" parent="1">
                    <mxGeometry x="420" y="1010" width="120" height="60" as="geometry"/>
                </mxCell>
                <mxCell id="6lniKMHnynfK3sxDc4WD-61" value="" style="edgeStyle=orthogonalEdgeStyle;rounded=0;orthogonalLoop=1;jettySize=auto;html=1;exitX=0;exitY=0.5;exitDx=0;exitDy=0;entryX=1;entryY=0.5;entryDx=0;entryDy=0;endArrow=none;startFill=0;startArrow=ERone;fontSize=14;spacingBottom=0;spacingLeft=20;fontStyle=1" edge="1" parent="1" source="6lniKMHnynfK3sxDc4WD-62" target="6lniKMHnynfK3sxDc4WD-65">
                    <mxGeometry x="-0.3333" y="-10" relative="1" as="geometry">
                        <mxPoint as="offset"/>
                    </mxGeometry>
                </mxCell>
                <mxCell id="6lniKMHnynfK3sxDc4WD-62" value="غرامة" style="whiteSpace=wrap;html=1;align=center;fontFamily=Readex Pro;fontSize=12;fontStyle=0;fontSource=https%3A%2F%2Ffonts.googleapis.com%2Fcss%3Ffamily%3DReadex%2BPro;gradientDirection=south;shadow=0;glass=0;rounded=0;fillColor=#003CB3;strokeColor=#001DBC;verticalAlign=middle;fontColor=#ffffff;gradientColor=#00256E;" vertex="1" parent="1">
                    <mxGeometry x="630" y="1110" width="100" height="40" as="geometry"/>
                </mxCell>
                <mxCell id="6lniKMHnynfK3sxDc4WD-63" value="غرامة مشترك" style="whiteSpace=wrap;html=1;align=center;fontFamily=Readex Pro;fontSize=12;fontStyle=0;fontSource=https%3A%2F%2Ffonts.googleapis.com%2Fcss%3Ffamily%3DReadex%2BPro;gradientDirection=south;shadow=0;glass=0;rounded=0;fillColor=#003CB3;strokeColor=#001DBC;verticalAlign=middle;fontColor=#ffffff;gradientColor=#00256E;" vertex="1" parent="1">
                    <mxGeometry x="220" y="1110" width="100" height="40" as="geometry"/>
                </mxCell>
                <mxCell id="6lniKMHnynfK3sxDc4WD-64" value="" style="edgeStyle=orthogonalEdgeStyle;rounded=0;orthogonalLoop=1;jettySize=auto;html=1;entryX=1;entryY=0.5;entryDx=0;entryDy=0;endArrow=ERoneToMany;endFill=0;fontStyle=1;fontSize=14;spacingRight=20;" edge="1" parent="1" source="6lniKMHnynfK3sxDc4WD-65" target="6lniKMHnynfK3sxDc4WD-63">
                    <mxGeometry x="0.4" y="-10" relative="1" as="geometry">
                        <mxPoint as="offset"/>
                    </mxGeometry>
                </mxCell>
                <mxCell id="6lniKMHnynfK3sxDc4WD-65" value="تحدد" style="shape=rhombus;perimeter=rhombusPerimeter;whiteSpace=wrap;html=1;align=center;fontSize=14;fontFamily=Times New Roman;fontStyle=1" vertex="1" parent="1">
                    <mxGeometry x="420" y="1100" width="120" height="60" as="geometry"/>
                </mxCell>
                <mxCell id="6lniKMHnynfK3sxDc4WD-66" value="" style="edgeStyle=orthogonalEdgeStyle;rounded=0;orthogonalLoop=1;jettySize=auto;html=1;exitX=0;exitY=0.5;exitDx=0;exitDy=0;entryX=1;entryY=0.5;entryDx=0;entryDy=0;endArrow=none;startFill=0;startArrow=ERone;fontSize=14;spacingBottom=0;spacingLeft=20;fontStyle=1" edge="1" parent="1" source="6lniKMHnynfK3sxDc4WD-67" target="6lniKMHnynfK3sxDc4WD-70">
                    <mxGeometry x="-0.3333" y="-10" relative="1" as="geometry">
                        <mxPoint as="offset"/>
                    </mxGeometry>
                </mxCell>
                <mxCell id="6lniKMHnynfK3sxDc4WD-67" value="غرامة المشترك" style="whiteSpace=wrap;html=1;align=center;fontFamily=Readex Pro;fontSize=12;fontStyle=0;fontSource=https%3A%2F%2Ffonts.googleapis.com%2Fcss%3Ffamily%3DReadex%2BPro;gradientDirection=south;shadow=0;glass=0;rounded=0;fillColor=#003CB3;strokeColor=#001DBC;verticalAlign=middle;fontColor=#ffffff;gradientColor=#00256E;" vertex="1" parent="1">
                    <mxGeometry x="630" y="1179" width="100" height="40" as="geometry"/>
                </mxCell>
                <mxCell id="6lniKMHnynfK3sxDc4WD-68" value="المشترك" style="whiteSpace=wrap;html=1;align=center;fontFamily=Readex Pro;fontSize=12;fontStyle=0;fontSource=https%3A%2F%2Ffonts.googleapis.com%2Fcss%3Ffamily%3DReadex%2BPro;gradientDirection=south;shadow=0;glass=0;rounded=0;fillColor=#003CB3;strokeColor=#001DBC;verticalAlign=middle;fontColor=#ffffff;gradientColor=#00256E;" vertex="1" parent="1">
                    <mxGeometry x="220" y="1179" width="100" height="40" as="geometry"/>
                </mxCell>
                <mxCell id="6lniKMHnynfK3sxDc4WD-69" value="" style="edgeStyle=orthogonalEdgeStyle;rounded=0;orthogonalLoop=1;jettySize=auto;html=1;entryX=1;entryY=0.5;entryDx=0;entryDy=0;endArrow=ERoneToMany;endFill=0;fontStyle=1;fontSize=14;spacingRight=20;" edge="1" parent="1" source="6lniKMHnynfK3sxDc4WD-70" target="6lniKMHnynfK3sxDc4WD-68">
                    <mxGeometry x="0.4" y="-10" relative="1" as="geometry">
                        <mxPoint as="offset"/>
                    </mxGeometry>
                </mxCell>
                <mxCell id="6lniKMHnynfK3sxDc4WD-70" value="تخص" style="shape=rhombus;perimeter=rhombusPerimeter;whiteSpace=wrap;html=1;align=center;fontSize=14;fontFamily=Times New Roman;fontStyle=1" vertex="1" parent="1">
                    <mxGeometry x="420" y="1169" width="120" height="60" as="geometry"/>
                </mxCell>
                <mxCell id="6lniKMHnynfK3sxDc4WD-71" value="" style="edgeStyle=orthogonalEdgeStyle;rounded=0;orthogonalLoop=1;jettySize=auto;html=1;exitX=0;exitY=0.5;exitDx=0;exitDy=0;entryX=1;entryY=0.5;entryDx=0;entryDy=0;endArrow=none;startFill=0;startArrow=ERone;fontSize=14;spacingBottom=0;spacingLeft=20;fontStyle=1" edge="1" parent="1" source="6lniKMHnynfK3sxDc4WD-72" target="6lniKMHnynfK3sxDc4WD-75">
                    <mxGeometry x="-0.3333" y="-10" relative="1" as="geometry">
                        <mxPoint as="offset"/>
                    </mxGeometry>
                </mxCell>
                <mxCell id="6lniKMHnynfK3sxDc4WD-72" value="المشترك" style="whiteSpace=wrap;html=1;align=center;fontFamily=Readex Pro;fontSize=12;fontStyle=0;fontSource=https%3A%2F%2Ffonts.googleapis.com%2Fcss%3Ffamily%3DReadex%2BPro;gradientDirection=south;shadow=0;glass=0;rounded=0;fillColor=#003CB3;strokeColor=#001DBC;verticalAlign=middle;fontColor=#ffffff;gradientColor=#00256E;" vertex="1" parent="1">
                    <mxGeometry x="630" y="1270" width="100" height="40" as="geometry"/>
                </mxCell>
                <mxCell id="6lniKMHnynfK3sxDc4WD-73" value="عداد" style="whiteSpace=wrap;html=1;align=center;fontFamily=Readex Pro;fontSize=12;fontStyle=0;fontSource=https%3A%2F%2Ffonts.googleapis.com%2Fcss%3Ffamily%3DReadex%2BPro;gradientDirection=south;shadow=0;glass=0;rounded=0;fillColor=#003CB3;strokeColor=#001DBC;verticalAlign=middle;fontColor=#ffffff;gradientColor=#00256E;" vertex="1" parent="1">
                    <mxGeometry x="220" y="1270" width="100" height="40" as="geometry"/>
                </mxCell>
                <mxCell id="6lniKMHnynfK3sxDc4WD-74" value="" style="edgeStyle=orthogonalEdgeStyle;rounded=0;orthogonalLoop=1;jettySize=auto;html=1;entryX=1;entryY=0.5;entryDx=0;entryDy=0;endArrow=ERoneToMany;endFill=0;fontStyle=1;fontSize=14;spacingRight=20;" edge="1" parent="1" source="6lniKMHnynfK3sxDc4WD-75" target="6lniKMHnynfK3sxDc4WD-73">
                    <mxGeometry x="0.4" y="-10" relative="1" as="geometry">
                        <mxPoint as="offset"/>
                    </mxGeometry>
                </mxCell>
                <mxCell id="6lniKMHnynfK3sxDc4WD-75" value="يملك" style="shape=rhombus;perimeter=rhombusPerimeter;whiteSpace=wrap;html=1;align=center;fontSize=14;fontFamily=Times New Roman;fontStyle=1" vertex="1" parent="1">
                    <mxGeometry x="420" y="1260" width="120" height="60" as="geometry"/>
                </mxCell>
                <mxCell id="6lniKMHnynfK3sxDc4WD-76" value="" style="edgeStyle=orthogonalEdgeStyle;rounded=0;orthogonalLoop=1;jettySize=auto;html=1;exitX=0;exitY=0.5;exitDx=0;exitDy=0;entryX=1;entryY=0.5;entryDx=0;entryDy=0;endArrow=none;startFill=0;startArrow=ERone;fontSize=14;spacingBottom=0;spacingLeft=20;fontStyle=1" edge="1" parent="1" source="6lniKMHnynfK3sxDc4WD-77" target="6lniKMHnynfK3sxDc4WD-80">
                    <mxGeometry x="-0.3333" y="-10" relative="1" as="geometry">
                        <mxPoint as="offset"/>
                    </mxGeometry>
                </mxCell>
                <mxCell id="6lniKMHnynfK3sxDc4WD-77" value="الفاتورة" style="whiteSpace=wrap;html=1;align=center;fontFamily=Readex Pro;fontSize=12;fontStyle=0;fontSource=https%3A%2F%2Ffonts.googleapis.com%2Fcss%3Ffamily%3DReadex%2BPro;gradientDirection=south;shadow=0;glass=0;rounded=0;fillColor=#003CB3;strokeColor=#001DBC;verticalAlign=middle;fontColor=#ffffff;gradientColor=#00256E;" vertex="1" parent="1">
                    <mxGeometry x="630" y="1360" width="100" height="40" as="geometry"/>
                </mxCell>
                <mxCell id="6lniKMHnynfK3sxDc4WD-78" value="عداد" style="whiteSpace=wrap;html=1;align=center;fontFamily=Readex Pro;fontSize=12;fontStyle=0;fontSource=https%3A%2F%2Ffonts.googleapis.com%2Fcss%3Ffamily%3DReadex%2BPro;gradientDirection=south;shadow=0;glass=0;rounded=0;fillColor=#003CB3;strokeColor=#001DBC;verticalAlign=middle;fontColor=#ffffff;gradientColor=#00256E;" vertex="1" parent="1">
                    <mxGeometry x="220" y="1360" width="100" height="40" as="geometry"/>
                </mxCell>
                <mxCell id="6lniKMHnynfK3sxDc4WD-79" value="" style="edgeStyle=orthogonalEdgeStyle;rounded=0;orthogonalLoop=1;jettySize=auto;html=1;entryX=1;entryY=0.5;entryDx=0;entryDy=0;endArrow=ERoneToMany;endFill=0;fontStyle=1;fontSize=14;spacingRight=20;" edge="1" parent="1" source="6lniKMHnynfK3sxDc4WD-80" target="6lniKMHnynfK3sxDc4WD-78">
                    <mxGeometry x="0.4" y="-10" relative="1" as="geometry">
                        <mxPoint as="offset"/>
                    </mxGeometry>
                </mxCell>
                <mxCell id="6lniKMHnynfK3sxDc4WD-80" value="ترتبط ب" style="shape=rhombus;perimeter=rhombusPerimeter;whiteSpace=wrap;html=1;align=center;fontSize=14;fontFamily=Times New Roman;fontStyle=1" vertex="1" parent="1">
                    <mxGeometry x="420" y="1350" width="120" height="60" as="geometry"/>
                </mxCell>
                <mxCell id="6lniKMHnynfK3sxDc4WD-81" value="" style="edgeStyle=orthogonalEdgeStyle;rounded=0;orthogonalLoop=1;jettySize=auto;html=1;exitX=0;exitY=0.5;exitDx=0;exitDy=0;entryX=1;entryY=0.5;entryDx=0;entryDy=0;endArrow=none;startFill=0;startArrow=ERone;fontSize=14;spacingBottom=0;spacingLeft=20;fontStyle=1" edge="1" parent="1" source="6lniKMHnynfK3sxDc4WD-82" target="6lniKMHnynfK3sxDc4WD-85">
                    <mxGeometry x="-0.3333" y="-10" relative="1" as="geometry">
                        <mxPoint as="offset"/>
                    </mxGeometry>
                </mxCell>
                <mxCell id="6lniKMHnynfK3sxDc4WD-82" value="المستحق" style="whiteSpace=wrap;html=1;align=center;fontFamily=Readex Pro;fontSize=12;fontStyle=0;fontSource=https%3A%2F%2Ffonts.googleapis.com%2Fcss%3Ffamily%3DReadex%2BPro;gradientDirection=south;shadow=0;glass=0;rounded=0;fillColor=#003CB3;strokeColor=#001DBC;verticalAlign=middle;fontColor=#ffffff;gradientColor=#00256E;" vertex="1" parent="1">
                    <mxGeometry x="630" y="1450" width="100" height="40" as="geometry"/>
                </mxCell>
                <mxCell id="6lniKMHnynfK3sxDc4WD-83" value="العداد" style="whiteSpace=wrap;html=1;align=center;fontFamily=Readex Pro;fontSize=12;fontStyle=0;fontSource=https%3A%2F%2Ffonts.googleapis.com%2Fcss%3Ffamily%3DReadex%2BPro;gradientDirection=south;shadow=0;glass=0;rounded=0;fillColor=#003CB3;strokeColor=#001DBC;verticalAlign=middle;fontColor=#ffffff;gradientColor=#00256E;" vertex="1" parent="1">
                    <mxGeometry x="220" y="1450" width="100" height="40" as="geometry"/>
                </mxCell>
                <mxCell id="6lniKMHnynfK3sxDc4WD-84" value="" style="edgeStyle=orthogonalEdgeStyle;rounded=0;orthogonalLoop=1;jettySize=auto;html=1;entryX=1;entryY=0.5;entryDx=0;entryDy=0;endArrow=ERoneToMany;endFill=0;fontStyle=1;fontSize=14;spacingRight=20;" edge="1" parent="1" source="6lniKMHnynfK3sxDc4WD-85" target="6lniKMHnynfK3sxDc4WD-83">
                    <mxGeometry x="0.4" y="-10" relative="1" as="geometry">
                        <mxPoint as="offset"/>
                    </mxGeometry>
                </mxCell>
                <mxCell id="6lniKMHnynfK3sxDc4WD-85" value="تخص" style="shape=rhombus;perimeter=rhombusPerimeter;whiteSpace=wrap;html=1;align=center;fontSize=14;fontFamily=Times New Roman;fontStyle=1" vertex="1" parent="1">
                    <mxGeometry x="420" y="1440" width="120" height="60" as="geometry"/>
                </mxCell>
                <mxCell id="6lniKMHnynfK3sxDc4WD-86" value="" style="edgeStyle=orthogonalEdgeStyle;rounded=0;orthogonalLoop=1;jettySize=auto;html=1;exitX=0;exitY=0.5;exitDx=0;exitDy=0;entryX=1;entryY=0.5;entryDx=0;entryDy=0;endArrow=none;startFill=0;startArrow=ERone;fontSize=14;spacingBottom=0;spacingLeft=20;fontStyle=1" edge="1" parent="1" source="6lniKMHnynfK3sxDc4WD-87" target="6lniKMHnynfK3sxDc4WD-90">
                    <mxGeometry x="-0.3333" y="-10" relative="1" as="geometry">
                        <mxPoint as="offset"/>
                    </mxGeometry>
                </mxCell>
                <mxCell id="6lniKMHnynfK3sxDc4WD-87" value="المدفوع" style="whiteSpace=wrap;html=1;align=center;fontFamily=Readex Pro;fontSize=12;fontStyle=0;fontSource=https%3A%2F%2Ffonts.googleapis.com%2Fcss%3Ffamily%3DReadex%2BPro;gradientDirection=south;shadow=0;glass=0;rounded=0;fillColor=#003CB3;strokeColor=#001DBC;verticalAlign=middle;fontColor=#ffffff;gradientColor=#00256E;" vertex="1" parent="1">
                    <mxGeometry x="630" y="1530" width="100" height="40" as="geometry"/>
                </mxCell>
                <mxCell id="6lniKMHnynfK3sxDc4WD-88" value="الفاتورة" style="whiteSpace=wrap;html=1;align=center;fontFamily=Readex Pro;fontSize=12;fontStyle=0;fontSource=https%3A%2F%2Ffonts.googleapis.com%2Fcss%3Ffamily%3DReadex%2BPro;gradientDirection=south;shadow=0;glass=0;rounded=0;fillColor=#003CB3;strokeColor=#001DBC;verticalAlign=middle;fontColor=#ffffff;gradientColor=#00256E;" vertex="1" parent="1">
                    <mxGeometry x="220" y="1530" width="100" height="40" as="geometry"/>
                </mxCell>
                <mxCell id="6lniKMHnynfK3sxDc4WD-89" value="" style="edgeStyle=orthogonalEdgeStyle;rounded=0;orthogonalLoop=1;jettySize=auto;html=1;entryX=1;entryY=0.5;entryDx=0;entryDy=0;endArrow=ERoneToMany;endFill=0;fontStyle=1;fontSize=14;spacingRight=20;" edge="1" parent="1" source="6lniKMHnynfK3sxDc4WD-90" target="6lniKMHnynfK3sxDc4WD-88">
                    <mxGeometry x="0.4" y="-10" relative="1" as="geometry">
                        <mxPoint as="offset"/>
                    </mxGeometry>
                </mxCell>
                <mxCell id="6lniKMHnynfK3sxDc4WD-90" value="يخص" style="shape=rhombus;perimeter=rhombusPerimeter;whiteSpace=wrap;html=1;align=center;fontSize=14;fontFamily=Times New Roman;fontStyle=1" vertex="1" parent="1">
                    <mxGeometry x="420" y="1520" width="120" height="60" as="geometry"/>
                </mxCell>
                <mxCell id="6lniKMHnynfK3sxDc4WD-91" value="" style="edgeStyle=orthogonalEdgeStyle;rounded=0;orthogonalLoop=1;jettySize=auto;html=1;exitX=0;exitY=0.5;exitDx=0;exitDy=0;entryX=1;entryY=0.5;entryDx=0;entryDy=0;endArrow=none;startFill=0;startArrow=ERone;fontSize=14;spacingBottom=0;spacingLeft=20;fontStyle=1" edge="1" parent="1" source="6lniKMHnynfK3sxDc4WD-92" target="6lniKMHnynfK3sxDc4WD-95">
                    <mxGeometry x="-0.3333" y="-10" relative="1" as="geometry">
                        <mxPoint as="offset"/>
                    </mxGeometry>
                </mxCell>
                <mxCell id="6lniKMHnynfK3sxDc4WD-92" value="المتأخر" style="whiteSpace=wrap;html=1;align=center;fontFamily=Readex Pro;fontSize=12;fontStyle=0;fontSource=https%3A%2F%2Ffonts.googleapis.com%2Fcss%3Ffamily%3DReadex%2BPro;gradientDirection=south;shadow=0;glass=0;rounded=0;fillColor=#003CB3;strokeColor=#001DBC;verticalAlign=middle;fontColor=#ffffff;gradientColor=#00256E;" vertex="1" parent="1">
                    <mxGeometry x="630" y="1610" width="100" height="40" as="geometry"/>
                </mxCell>
                <mxCell id="6lniKMHnynfK3sxDc4WD-93" value="الفاتورة" style="whiteSpace=wrap;html=1;align=center;fontFamily=Readex Pro;fontSize=12;fontStyle=0;fontSource=https%3A%2F%2Ffonts.googleapis.com%2Fcss%3Ffamily%3DReadex%2BPro;gradientDirection=south;shadow=0;glass=0;rounded=0;fillColor=#003CB3;strokeColor=#001DBC;verticalAlign=middle;fontColor=#ffffff;gradientColor=#00256E;" vertex="1" parent="1">
                    <mxGeometry x="220" y="1610" width="100" height="40" as="geometry"/>
                </mxCell>
                <mxCell id="6lniKMHnynfK3sxDc4WD-94" value="" style="edgeStyle=orthogonalEdgeStyle;rounded=0;orthogonalLoop=1;jettySize=auto;html=1;entryX=1;entryY=0.5;entryDx=0;entryDy=0;endArrow=ERoneToMany;endFill=0;fontStyle=1;fontSize=14;spacingRight=20;" edge="1" parent="1" source="6lniKMHnynfK3sxDc4WD-95" target="6lniKMHnynfK3sxDc4WD-93">
                    <mxGeometry x="0.4" y="-10" relative="1" as="geometry">
                        <mxPoint as="offset"/>
                    </mxGeometry>
                </mxCell>
                <mxCell id="6lniKMHnynfK3sxDc4WD-95" value="يخص" style="shape=rhombus;perimeter=rhombusPerimeter;whiteSpace=wrap;html=1;align=center;fontSize=14;fontFamily=Times New Roman;fontStyle=1" vertex="1" parent="1">
                    <mxGeometry x="420" y="1600" width="120" height="60" as="geometry"/>
                </mxCell>
            </root>
        </mxGraphModel>
    </diagram>
</mxfile>